<?xml version="1.0" encoding="UTF-8"?>
<svg version="1.1" xmlns="http://www.w3.org/2000/svg" width="360" height="480">
<path d="M0 0 C118.8 0 237.6 0 360 0 C360 158.4 360 316.8 360 480 C241.2 480 122.4 480 0 480 C0 321.6 0 163.2 0 0 Z " fill="#FFFFFF" transform="translate(0,0)"/>
<path d="M0 0 C1.2489505 -0.00426498 2.497901 -0.00852997 3.78469849 -0.01292419 C5.15596011 -0.01257473 6.52722172 -0.01211323 7.89848328 -0.0115509 C9.35272813 -0.0145454 10.80697219 -0.0179486 12.26121521 -0.02172852 C16.20142546 -0.03054348 20.14161397 -0.03290558 24.08183312 -0.0335443 C26.5466759 -0.03425626 29.01151319 -0.03639336 31.4763546 -0.03904152 C40.08435287 -0.04828689 48.69233568 -0.05237745 57.30033875 -0.05158997 C65.30963799 -0.0509895 73.31886981 -0.06153736 81.328152 -0.07733363 C88.21668256 -0.09043277 95.10519115 -0.09577286 101.99373406 -0.09513456 C106.1025293 -0.09488025 110.2112646 -0.09769396 114.32004738 -0.10831261 C118.18686739 -0.11803354 122.05357064 -0.11804554 125.9203949 -0.11079597 C127.33405924 -0.10975506 128.747731 -0.11208352 130.16138268 -0.11815643 C149.94415891 -0.1975908 149.94415891 -0.1975908 157.68241882 6.13371277 C162.75865844 11.37916037 164.92717906 15.27499115 164.95657349 22.59715271 C164.96181017 23.24421071 164.96704684 23.89126871 164.97244221 24.55793452 C164.98743319 26.72420716 164.98814715 28.8902434 164.98881531 31.05656433 C164.99643753 32.61066079 165.00486513 34.16475347 165.01403809 35.71884155 C165.03598653 39.94008887 165.04478269 44.16126375 165.04986453 48.38256168 C165.05350833 51.0212674 165.05974858 53.65995416 165.06686592 56.29865265 C165.09136366 65.50849236 165.10441257 74.71827574 165.10795593 83.92814636 C165.1115893 92.50558874 165.14146946 101.08267288 165.18336052 109.66000581 C165.21808587 117.02916507 165.23350478 124.39820577 165.23420197 131.76744628 C165.23499416 136.16644122 165.24370548 140.5650714 165.27219963 144.96398163 C165.29841827 149.10425981 165.3005647 153.24387187 165.28454399 157.38419533 C165.28273237 158.89988218 165.28939441 160.41560766 165.3053627 161.93121147 C165.3856276 170.04727079 165.40714045 176.83753808 159.68241882 183.13371277 C152.23474598 190.58138561 144.9825371 191.47511223 134.8759613 191.55140686 C133.44425869 191.54716983 132.012557 191.54261207 130.58085632 191.5377655 C129.05572511 191.54347489 127.53059817 191.55044134 126.00547791 191.55856323 C121.88151699 191.57644534 117.75776942 191.57533585 113.63378143 191.56962085 C110.18448301 191.56652237 106.73522517 191.57262864 103.28593254 191.57865959 C95.14657565 191.59268643 87.00732377 191.59115838 78.8679657 191.57975769 C70.48360779 191.56827304 62.09956962 191.58236208 53.71525383 191.60915416 C46.50311474 191.6313338 39.29107586 191.6379436 32.07890511 191.63207775 C27.7772925 191.62871301 23.47588492 191.63109125 19.17430115 191.64832878 C15.12922315 191.66383251 11.08461796 191.65980478 7.03955841 191.64102364 C5.55936013 191.63734746 4.07912654 191.64041784 2.59896088 191.65090942 C-6.63661528 191.71135058 -13.42023478 191.50207749 -20.55976868 185.13371277 C-21.0985968 184.47371277 -21.63742493 183.81371277 -22.19258118 183.13371277 C-22.74687805 182.47371277 -23.30117493 181.81371277 -23.87226868 181.13371277 C-26.93809564 176.89127113 -27.57055498 173.94643186 -27.59173584 168.67027283 C-27.59959086 167.69968583 -27.59959086 167.69968583 -27.60760456 166.70949101 C-27.62259555 164.54321838 -27.62330951 162.37718214 -27.62397766 160.21086121 C-27.63159988 158.65676475 -27.64002749 157.10267206 -27.64920044 155.54858398 C-27.67114889 151.32733667 -27.67994504 147.10616179 -27.68502688 142.88486385 C-27.68867069 140.24615813 -27.69491094 137.60747138 -27.70202827 134.96877289 C-27.72652601 125.75893318 -27.73957493 116.5491498 -27.74311829 107.33927917 C-27.74675165 98.76183679 -27.77663182 90.18475266 -27.81852287 81.60741973 C-27.85324822 74.23826047 -27.86866713 66.86921977 -27.86936432 59.49997926 C-27.87015651 55.10098432 -27.87886783 50.70235413 -27.90736198 46.30344391 C-27.93358062 42.16316573 -27.93572705 38.02355367 -27.91970634 33.88323021 C-27.91789472 32.36754336 -27.92455677 30.85181788 -27.94052505 29.33621407 C-28.02050392 21.24907798 -28.07721432 14.38116999 -22.31758118 8.13371277 C-15.59362056 1.44495547 -9.31951168 0.01444034 0 0 Z " fill="#C27C3E" transform="translate(111.31758117675781,144.8662872314453)"/>
<path d="M0 0 C1.37248901 0.00628418 1.37248901 0.00628418 2.77270508 0.01269531 C14.72471865 0.21099895 27.12285495 2.79567208 37.3125 9.375 C40.85606112 13.7578256 40.20086687 17.88412066 39.6875 23.3125 C40.6775 23.3125 41.6675 23.3125 42.6875 23.3125 C42.53087891 22.11753906 42.53087891 22.11753906 42.37109375 20.8984375 C41.72708243 12.4956231 41.72708243 12.4956231 44.3046875 9.3203125 C58.72950466 -0.5871242 78.01891492 -1.85983701 94.87890625 0.87890625 C100.43831574 2.10932017 104.50567914 3.72158957 109.6875 6.3125 C109.6875 43.2725 109.6875 80.2325 109.6875 118.3125 C98.6875 117.3125 98.6875 117.3125 97.6875 116.3125 C77.91995123 114.14084605 60.18928948 119.56160526 42.6875 128.3125 C42.6875 122.0425 42.6875 115.7725 42.6875 109.3125 C41.6975 109.3125 40.7075 109.3125 39.6875 109.3125 C39.6875 115.5825 39.6875 121.8525 39.6875 128.3125 C32.98678432 126.07892811 32.98678432 126.07892811 30.0234375 124.65625 C22.65425691 121.21723739 16.02210006 118.54772962 7.84765625 117.6015625 C5.6875 117.3125 5.6875 117.3125 4.6875 116.3125 C1.42494924 116.05643646 -1.85362738 116.12724528 -5.125 116.125 C-6.02154297 116.11275391 -6.91808594 116.10050781 -7.84179688 116.08789062 C-15.05585666 116.07246498 -20.98203697 117.09075616 -28.3125 118.3125 C-28.3125 81.3525 -28.3125 44.3925 -28.3125 6.3125 C-18.50945701 1.4109785 -10.81725278 -0.06838089 0 0 Z " fill="#EBD1AC" transform="translate(139.3125,175.6875)"/>
<path d="M0 0 C71.28 0 142.56 0 216 0 C216 71.28 216 142.56 216 216 C144.72 216 73.44 216 0 216 C0 144.72 0 73.44 0 0 Z M17.58984375 20.453125 C13.2030178 25.5177987 11.75268465 28.77775703 11.72584534 35.46343994 C11.72060866 36.11049794 11.71537198 36.75755594 11.70997661 37.42422175 C11.69498563 39.59049439 11.69427167 41.75653063 11.69360352 43.92285156 C11.6859813 45.47694802 11.67755369 47.03104071 11.66838074 48.58512878 C11.64643229 52.8063761 11.63763614 57.02755098 11.63255429 61.24884892 C11.62891049 63.88755463 11.62267024 66.52624139 11.6155529 69.16493988 C11.59105517 78.37477959 11.57800625 87.58456297 11.57446289 96.79443359 C11.57082952 105.37187597 11.54094936 113.94896011 11.49905831 122.52629304 C11.46433295 129.8954523 11.44891405 137.264493 11.44821686 144.63373351 C11.44742467 149.03272845 11.43871334 153.43135864 11.41021919 157.83026886 C11.38400055 161.97054704 11.38185412 166.1101591 11.39787483 170.25048256 C11.39968645 171.76616941 11.39302441 173.28189489 11.37705612 174.7974987 C11.28107794 184.50242086 12.20299047 190.7354853 18.84375 198.0234375 C19.66359375 198.69246094 19.66359375 198.69246094 20.5 199.375 C21.0465625 199.83648437 21.593125 200.29796875 22.15625 200.7734375 C26.49332388 203.65869427 30.30084551 204.25217164 35.4563446 204.26742554 C36.76137436 204.27595551 38.06640411 204.28448547 39.41098022 204.29327393 C40.85040295 204.29257494 42.28982559 204.29165191 43.72924805 204.29052734 C45.25069 204.29651421 46.77212891 204.30332013 48.29356384 204.31088257 C52.42192299 204.32853759 56.5501992 204.33323785 60.67859244 204.33451414 C63.26086839 204.33593703 65.84312334 204.34020933 68.42539406 204.34550858 C77.44303345 204.36400998 86.46061375 204.3721794 95.47827148 204.37060547 C103.86876243 204.36940531 112.25899563 204.39048261 120.64942139 204.4220928 C127.86406841 204.44829942 135.07863151 204.45897087 142.29332572 204.45769465 C146.59729659 204.45718613 150.90103854 204.46280745 155.20496178 204.48405075 C159.25737254 204.50350627 163.30933784 204.50350811 167.36176491 204.48901749 C168.84274069 204.48693703 170.32374487 204.49158445 171.80467224 204.5037384 C181.25727815 204.57624273 189.86508916 204.21326017 197.4375 198 C198.2109375 197.01 198.2109375 197.01 199 196 C199.53625 195.34 200.0725 194.68 200.625 194 C203.57384399 189.71077238 204.25301949 186.80133942 204.27415466 181.53656006 C204.27939134 180.88950206 204.28462802 180.24244406 204.29002339 179.57577825 C204.30501437 177.40950561 204.30572833 175.24346937 204.30639648 173.07714844 C204.3140187 171.52305198 204.32244631 169.96895929 204.33161926 168.41487122 C204.35356771 164.1936239 204.36236386 159.97244902 204.36744571 155.75115108 C204.37108951 153.11244537 204.37732976 150.47375861 204.3844471 147.83506012 C204.40894483 138.62522041 204.42199375 129.41543703 204.42553711 120.20556641 C204.42917048 111.62812403 204.45905064 103.05103989 204.50094169 94.47370696 C204.53566705 87.1045477 204.55108595 79.735507 204.55178314 72.36626649 C204.55257533 67.96727155 204.56128666 63.56864136 204.58978081 59.16973114 C204.61599945 55.02945296 204.61814588 50.8898409 204.60212517 46.74951744 C204.60031355 45.23383059 204.60697559 43.71810511 204.62294388 42.2025013 C204.70292274 34.11536521 204.75963315 27.24745722 199 21 C191.97482362 14.01160395 185.28209197 12.88135318 175.55543518 12.86628723 C174.30366486 12.86202225 173.05189453 12.85775726 171.76219177 12.85336304 C170.39297482 12.85371247 169.0237579 12.85417396 167.65454102 12.85473633 C166.19852615 12.85174098 164.74251207 12.84833759 163.28649902 12.84455872 C159.34641513 12.8357542 155.40635298 12.83338214 151.46626019 12.83274293 C149.00158734 12.83203058 146.53691995 12.82989279 144.07224846 12.82724571 C135.46539842 12.81800507 126.85856382 12.81390935 118.25170898 12.81469727 C110.24180098 12.81529819 102.23196029 12.80474021 94.22206932 12.7889536 C87.33268498 12.77586148 80.44332261 12.77051405 73.55392593 12.77115268 C69.44461855 12.77140711 65.33537107 12.76858603 61.22607613 12.75797462 C57.36088749 12.74826509 53.49581571 12.74823396 49.63062286 12.75549126 C48.21653764 12.75653345 46.80244502 12.754196 45.38837242 12.7481308 C30.17305342 12.59486748 30.17305342 12.59486748 17.58984375 20.453125 Z " fill="#EDD3AD" transform="translate(72,132)"/>
<path d="M0 0 C2.41676191 1.52003085 2.41676191 1.52003085 4.9609375 0.58984375 C7.57838859 -0.83453661 10.18839461 -2.27094571 12.79296875 -3.71875 C29.85350394 -12.28041735 50.05690456 -11.41739563 67.87109375 -5.69140625 C70.43063889 -4.76931371 72.96311906 -3.81226432 75.48046875 -2.78125 C75.48046875 -0.14125 75.48046875 2.49875 75.48046875 5.21875 C77.39859375 5.156875 77.39859375 5.156875 79.35546875 5.09375 C81.53515625 5.0234375 81.53515625 5.0234375 83.48046875 5.21875 C85.95738983 7.69567108 85.73138739 8.40091434 85.73443604 11.81164551 C85.74289551 13.2628756 85.74289551 13.2628756 85.75152588 14.74342346 C85.74545319 16.3409269 85.74545319 16.3409269 85.73925781 17.97070312 C85.74451477 19.64881325 85.74451477 19.64881325 85.74987793 21.36082458 C85.75870988 25.07394542 85.75284085 28.78687709 85.74609375 32.5 C85.74743998 35.07067909 85.74938015 37.64135792 85.75189209 40.21203613 C85.75484534 45.60573986 85.75072884 50.99937195 85.74121094 56.39306641 C85.73032607 62.63356998 85.73385154 68.87394289 85.74486375 75.1144433 C85.75502401 81.11162788 85.75396044 87.10874839 85.74810028 93.10594177 C85.74676227 95.66092446 85.74841674 98.21591046 85.75305939 100.77088928 C85.75811562 104.33628281 85.75042694 107.90142235 85.73925781 111.46679688 C85.74330627 112.53179916 85.74735474 113.59680145 85.75152588 114.69407654 C85.74588623 115.66156326 85.74024658 116.62904999 85.73443604 117.62585449 C85.73330496 118.89126698 85.73330496 118.89126698 85.73215103 120.18224335 C85.48046875 122.21875 85.48046875 122.21875 83.48046875 124.21875 C80.54020691 124.47703552 80.54020691 124.47703552 76.72338867 124.48999023 C76.028871 124.49521698 75.33435333 124.50044373 74.61878967 124.50582886 C73.10845898 124.51608091 71.59809284 124.52185136 70.0877285 124.52371025 C67.69587526 124.52736678 65.30443935 124.5440744 62.91267395 124.56446838 C56.11170214 124.61994199 49.31066778 124.65053729 42.50952148 124.67504883 C38.350893 124.69094145 34.19255848 124.72118221 30.03408241 124.75981331 C28.45011839 124.77145276 26.86610174 124.77739357 25.28209496 124.77749443 C23.0629964 124.77768691 20.84470531 124.79598474 18.62573242 124.81811523 C17.36379562 124.82318588 16.10185883 124.82825653 14.80168152 124.83348083 C11.21880127 125.2491041 9.4507107 126.26336643 6.48046875 128.21875 C2.91796875 128.59375 2.91796875 128.59375 -0.51953125 128.21875 C-1.10540009 127.72427872 -1.69126892 127.22980743 -2.29489136 126.72035217 C-5.42724626 124.60605451 -7.79340087 124.83318838 -11.55126953 124.81811523 C-12.25089813 124.81113617 -12.95052673 124.8041571 -13.6713562 124.79696655 C-15.97764182 124.77701396 -18.28347958 124.77749011 -20.58984375 124.77734375 C-22.19360564 124.76557253 -23.79735656 124.75220894 -25.40109253 124.73731995 C-29.61874558 124.70114346 -33.8363014 124.68093258 -38.05407715 124.66577148 C-44.81233198 124.64093081 -51.57037209 124.60141406 -58.32842636 124.54387093 C-60.69166798 124.52750425 -63.05470788 124.52376124 -65.41799927 124.52085876 C-66.86086378 124.51108635 -68.30372509 124.50082372 -69.74658203 124.48999023 C-71.64043137 124.48357765 -71.64043137 124.48357765 -73.57254028 124.47703552 C-76.51953125 124.21875 -76.51953125 124.21875 -78.51953125 122.21875 C-78.77121353 120.18224335 -78.77121353 120.18224335 -78.77349854 117.62585449 C-78.77913818 116.65836777 -78.78477783 115.69088104 -78.79058838 114.69407654 C-78.78653992 113.62907425 -78.78249146 112.56407196 -78.77832031 111.46679688 C-78.78182495 110.34805679 -78.78532959 109.22931671 -78.78894043 108.07667542 C-78.79777238 104.36355458 -78.79190335 100.65062291 -78.78515625 96.9375 C-78.78650248 94.36682091 -78.78844265 91.79614208 -78.79095459 89.22546387 C-78.79390784 83.83176014 -78.78979134 78.43812805 -78.78027344 73.04443359 C-78.76938857 66.80393002 -78.77291404 60.56355711 -78.78392625 54.3230567 C-78.79408651 48.32587212 -78.79302294 42.32875161 -78.78716278 36.33155823 C-78.78582477 33.77657554 -78.78747924 31.22158954 -78.79212189 28.66661072 C-78.79717812 25.10121719 -78.78948944 21.53607765 -78.77832031 17.97070312 C-78.78236877 16.90570084 -78.78641724 15.84069855 -78.79058838 14.74342346 C-78.78494873 13.77593674 -78.77930908 12.80845001 -78.77349854 11.81164551 C-78.77274448 10.96803719 -78.77199043 10.12442886 -78.77121353 9.25525665 C-78.51953125 7.21875 -78.51953125 7.21875 -76.51953125 5.21875 C-73.8311374 4.94883094 -71.22811189 5.13137643 -68.51953125 5.21875 C-68.51953125 2.57875 -68.51953125 -0.06125 -68.51953125 -2.78125 C-47.34968267 -11.72721827 -19.87657435 -14.05227582 0 0 Z M-60.51953125 -2.78125 C-61.38632004 -2.48574753 -62.25310883 -2.19024506 -63.14616394 -1.88578796 C-65.66982366 -0.06428074 -65.66982366 -0.06428074 -65.97060585 2.28107262 C-66.13930723 5.14565836 -66.13692126 7.97129693 -66.0871582 10.84057617 C-66.08788834 11.93341415 -66.08861847 13.02625214 -66.08937073 14.15220642 C-66.08588103 17.77254484 -66.04695202 21.39160447 -66.0078125 25.01171875 C-65.99848936 27.51849159 -65.9913709 30.02527352 -65.9863739 32.53205872 C-65.96921937 38.4607996 -65.92979406 44.38912863 -65.87962645 50.31765777 C-65.81826962 57.72926807 -65.79140493 65.14093517 -65.76367188 72.55273438 C-65.7100158 85.7749737 -65.62561372 98.99683273 -65.51953125 112.21875 C-64.71976364 112.0770488 -63.91999603 111.9353476 -63.09599304 111.78935242 C-62.03395157 111.60580704 -60.9719101 111.42226166 -59.87768555 111.2331543 C-58.83041794 111.05020309 -57.78315033 110.86725189 -56.70414734 110.67875671 C-51.90217907 109.98512911 -47.17419797 109.96510969 -42.33203125 110.03125 C-41.39294922 110.03189453 -40.45386719 110.03253906 -39.48632812 110.03320312 C-32.66059471 110.07768654 -32.66059471 110.07768654 -31.51953125 111.21875 C-29.875144 111.41853537 -28.2288689 111.60278611 -26.58203125 111.78125 C-18.24056861 113.06609623 -10.9693007 116.76416924 -3.43554688 120.40258789 C-1.22405192 121.40386993 -1.22405192 121.40386993 2.48046875 122.21875 C2.48046875 115.94875 2.48046875 109.67875 2.48046875 103.21875 C3.47046875 103.21875 4.46046875 103.21875 5.48046875 103.21875 C5.48046875 109.48875 5.48046875 115.75875 5.48046875 122.21875 C7.41921875 121.290625 9.35796875 120.3625 11.35546875 119.40625 C16.19898982 117.17319808 20.91178647 115.25070727 26.0625 113.875 C28.48567625 113.2532983 28.48567625 113.2532983 30.8046875 112.375 C40.11810267 109.21691888 50.73729895 109.37772305 60.48046875 110.21875 C60.81046875 110.54875 61.14046875 110.87875 61.48046875 111.21875 C65.11046875 111.54875 68.74046875 111.87875 72.48046875 112.21875 C72.48046875 75.25875 72.48046875 38.29875 72.48046875 0.21875 C56.03776318 -6.35833223 37.34636287 -9.37774038 20.22265625 -2.99609375 C12.29199775 0.23556943 12.29199775 0.23556943 5.48046875 5.21875 C5.23707324 8.11758083 5.23707324 8.11758083 5.35546875 11.34375 C5.37351562 12.43945312 5.3915625 13.53515625 5.41015625 14.6640625 C5.43335938 15.50710937 5.4565625 16.35015625 5.48046875 17.21875 C4.49046875 17.21875 3.50046875 17.21875 2.48046875 17.21875 C2.57328125 16.49429688 2.66609375 15.76984375 2.76171875 15.0234375 C3.2503966 9.40695286 3.2503966 9.40695286 1.2265625 4.328125 C-14.0062624 -8.17397751 -42.56556827 -9.35175151 -60.51953125 -2.78125 Z " fill="#412012" transform="translate(176.51953125,181.78125)"/>
<path d="M0 0 C1.98 0 3.96 0 6 0 C7.57477774 1.57477774 7.12597352 3.14041927 7.12698364 5.32751465 C7.13121338 6.72836555 7.13121338 6.72836555 7.13552856 8.15751648 C7.13249222 9.70666496 7.13249222 9.70666496 7.12939453 11.28710938 C7.13202301 12.90888847 7.13202301 12.90888847 7.13470459 14.56343079 C7.13912558 18.15688659 7.13618424 21.75029365 7.1328125 25.34375 C7.13348547 27.82857269 7.13445543 30.31339531 7.13571167 32.79821777 C7.13737858 38.68313375 7.13386577 44.56803187 7.1285609 50.45294523 C7.12480608 55.15369598 7.12613367 59.85442581 7.13037109 64.55517578 C7.13615037 71.0207429 7.13708453 77.48628971 7.13381577 83.95185852 C7.13314625 86.42393498 7.13397577 88.8960123 7.13629532 91.36808777 C7.13882039 94.81637898 7.1349833 98.26460435 7.12939453 101.71289062 C7.13141876 102.74565628 7.13344299 103.77842194 7.13552856 104.84248352 C7.13270874 105.77638412 7.12988892 106.71028473 7.12698364 107.67248535 C7.1264181 108.89698269 7.1264181 108.89698269 7.12584114 110.14621735 C7 112 7 112 6 113 C3.94443339 113.09413687 1.88559819 113.11742998 -0.17211914 113.11352539 C-1.13794167 113.11374443 -1.13794167 113.11374443 -2.12327576 113.1139679 C-4.26060303 113.11326885 -6.39784413 113.10547691 -8.53515625 113.09765625 C-10.01346285 113.09579204 -11.49177007 113.09436815 -12.97007751 113.09336853 C-16.86798802 113.08954359 -20.76586149 113.07971352 -24.66375732 113.06866455 C-28.63846333 113.05844992 -32.61317529 113.0538708 -36.58789062 113.04882812 C-44.391944 113.03809122 -52.19596682 113.02101509 -60 113 C-51.87215289 104.87215289 -34.98727556 104.85021331 -24.125 104.6875 C-23.4429248 104.66977539 -22.76084961 104.65205078 -22.05810547 104.63378906 C-14.27494502 104.64458152 -8.01108241 106.39778352 0 108 C0 72.36 0 36.72 0 0 Z " fill="#C27B3D" transform="translate(252,190)"/>
<path d="M0 0 C1.98 0 3.96 0 6 0 C6 35.64 6 71.28 6 108 C11.28 107.01 16.56 106.02 22 105 C25.24376339 104.72535642 28.21945867 104.51729453 31.4375 104.5625 C32.21899414 104.56789795 33.00048828 104.5732959 33.80566406 104.57885742 C44.70546766 104.85651049 55.08879869 107.51941806 65 112 C65 112.33 65 112.66 65 113 C56.54232666 113.02312659 48.08466644 113.0409167 39.62696934 113.05181217 C35.70011342 113.05704031 31.77327906 113.06413669 27.84643555 113.07543945 C24.05985743 113.0862708 20.2733001 113.09227736 16.48670769 113.09487724 C15.03895681 113.09673105 13.59120712 113.10035081 12.14346504 113.10573006 C10.12242865 113.11294367 8.10137152 113.11340808 6.08032227 113.11352539 C4.35157616 113.11685631 4.35157616 113.11685631 2.58790588 113.12025452 C0 113 0 113 -1 112 C-1.0977394 110.56018786 -1.12631713 109.11561097 -1.12698364 107.67248535 C-1.12980347 106.73858475 -1.13262329 105.80468414 -1.13552856 104.84248352 C-1.13350433 103.80971786 -1.1314801 102.77695221 -1.12939453 101.71289062 C-1.13114685 100.63170456 -1.13289917 99.55051849 -1.13470459 98.43656921 C-1.13912558 94.84311341 -1.13618424 91.24970635 -1.1328125 87.65625 C-1.13348547 85.17142731 -1.13445543 82.68660469 -1.13571167 80.20178223 C-1.13737858 74.31686625 -1.13386577 68.43196813 -1.1285609 62.54705477 C-1.12480608 57.84630402 -1.12613367 53.14557419 -1.13037109 48.44482422 C-1.13615037 41.9792571 -1.13708453 35.51371029 -1.13381577 29.04814148 C-1.13314625 26.57606502 -1.13397577 24.1039877 -1.13629532 21.63191223 C-1.13882039 18.18362102 -1.1349833 14.73539565 -1.12939453 11.28710938 C-1.13141876 10.25434372 -1.13344299 9.22157806 -1.13552856 8.15751648 C-1.13270874 7.22361588 -1.12988892 6.28971527 -1.12698364 5.32751465 C-1.12660662 4.51118309 -1.12622959 3.69485153 -1.12584114 2.85378265 C-1 1 -1 1 0 0 Z " fill="#C27B3E" transform="translate(102,190)"/>
<path d="M0 0 C1.98 0.66 3.96 1.32 6 2 C6 4.64 6 7.28 6 10 C7.918125 9.938125 7.918125 9.938125 9.875 9.875 C12.0546875 9.8046875 12.0546875 9.8046875 14 10 C16.47692108 12.47692108 16.25091864 13.18216434 16.25396729 16.59289551 C16.25960693 17.56038223 16.26524658 18.52786896 16.27105713 19.52467346 C16.26700867 20.58967575 16.26296021 21.65467804 16.25878906 22.75195312 C16.2622937 23.87069321 16.26579834 24.98943329 16.26940918 26.14207458 C16.27824113 29.85519542 16.2723721 33.56812709 16.265625 37.28125 C16.26697123 39.85192909 16.2689114 42.42260792 16.27142334 44.99328613 C16.27437659 50.38698986 16.27026009 55.78062195 16.26074219 61.17431641 C16.24985732 67.41481998 16.25338279 73.65519289 16.264395 79.8956933 C16.27455526 85.89287788 16.27349169 91.88999839 16.26763153 97.88719177 C16.26629352 100.44217446 16.26794799 102.99716046 16.27259064 105.55213928 C16.27764687 109.11753281 16.26995819 112.68267235 16.25878906 116.24804688 C16.26283752 117.31304916 16.26688599 118.37805145 16.27105713 119.47532654 C16.26541748 120.44281326 16.25977783 121.41029999 16.25396729 122.40710449 C16.25321323 123.25071281 16.25245918 124.09432114 16.25168228 124.96349335 C16 127 16 127 14 129 C11.02609253 129.24050903 11.02609253 129.24050903 7.16357422 129.22705078 C6.46102509 129.22734283 5.75847595 129.22763489 5.03463745 129.22793579 C2.70786269 129.22654023 0.38140646 129.21096872 -1.9453125 129.1953125 C-3.55671005 129.19158317 -5.16810987 129.18873582 -6.7795105 129.18673706 C-11.02433514 129.17909431 -15.2690233 129.15944039 -19.51379395 129.1373291 C-23.8438126 129.11688443 -28.17385326 129.1077383 -32.50390625 129.09765625 C-41.00266686 129.07619504 -49.50131646 129.04205145 -58 129 C-58 128.67 -58 128.34 -58 128 C-56.72697021 127.97494385 -55.45394043 127.9498877 -54.14233398 127.92407227 C-25.90913422 127.41690594 -25.90913422 127.41690594 2.3125 126.5 C3.67580444 126.44694702 3.67580444 126.44694702 5.06665039 126.39282227 C8.84518432 126.55810922 8.84518432 126.55810922 12 125 C12.09558036 123.55786001 12.12188394 122.11105921 12.12025452 120.66575623 C12.12162918 119.73041046 12.12300385 118.7950647 12.12442017 117.83137512 C12.12082489 116.79703842 12.11722961 115.76270172 12.11352539 114.69702148 C12.11367142 113.61422913 12.11381744 112.53143677 12.1139679 111.41583252 C12.11326823 107.81756626 12.10547333 104.21935103 12.09765625 100.62109375 C12.09579226 98.13387582 12.09436827 95.64665752 12.09336853 93.15943909 C12.0899335 87.26978809 12.08204277 81.3801561 12.07201904 75.49051291 C12.05976246 68.12974626 12.05437791 60.76897736 12.04882812 53.40820312 C12.03808815 40.27212602 12.02120089 27.13606417 12 14 C10.02 13.67 8.04 13.34 6 13 C6 48.64 6 84.28 6 121 C4.02 121 2.04 121 0 121 C0.495 119.02 0.495 119.02 1 117 C1.66 117 2.32 117 3 117 C2.89280249 102.44877648 2.7799839 87.8976059 2.66066074 73.34647655 C2.6053581 66.59029557 2.55188096 59.8341093 2.50268555 53.07788086 C2.45523186 46.56155368 2.40271186 40.04527889 2.34705925 33.52901649 C2.32663008 31.03906901 2.30791794 28.54910684 2.29092598 26.05913353 C2.26689454 22.57997692 2.23683805 19.10092188 2.20532227 15.62182617 C2.19668907 14.06708084 2.19668907 14.06708084 2.18788147 12.48092651 C2.17319824 11.06116264 2.17319824 11.06116264 2.15821838 9.61271667 C2.15176583 8.78955554 2.14531328 7.96639441 2.1386652 7.11828899 C2.07745532 4.80972708 2.07745532 4.80972708 1 2 C0.34 1.67 -0.32 1.34 -1 1 C-0.67 0.67 -0.34 0.34 0 0 Z " fill="#412011" transform="translate(246,177)"/>
<path d="M0 0 C0.99 0 1.98 0 3 0 C3.495 8.91 3.495 8.91 4 18 C5.77375 17.071875 7.5475 16.14375 9.375 15.1875 C14.03616755 12.85964844 18.51401386 10.98568502 23.546875 9.65625 C26.00079186 9.03754948 26.00079186 9.03754948 28.328125 8.15625 C37.63725818 4.9946576 48.26026193 5.15926928 58 6 C58.495 6.495 58.495 6.495 59 7 C60.34747084 7.23075082 61.70377565 7.41153063 63.0625 7.5625 C64.361875 7.706875 65.66125 7.85125 67 8 C67 9.32 67 10.64 67 12 C65.88625 11.835 64.7725 11.67 63.625 11.5 C52.68892738 10.33439978 41.71480226 10.41239193 30.875 12.3125 C30.20146484 12.43012695 29.52792969 12.54775391 28.83398438 12.66894531 C23.87015478 13.63262822 19.86217705 15.17668361 15 17 C35.79 17.33 56.58 17.66 78 18 C78 18.33 78 18.66 78 19 C55.02811589 20.47188273 32.00611418 20.09463942 9 20 C8.505 21.485 8.505 21.485 8 23 C4.55063087 25.52069283 1.14222569 25.36984158 -3 25 C-5.4375 23.625 -5.4375 23.625 -7 22 C-7 21.34 -7 20.68 -7 20 C-7.59167969 20.01160156 -8.18335938 20.02320313 -8.79296875 20.03515625 C-13.00231785 20.08322386 -16.8922333 20.06006883 -21 19 C-21 18.67 -21 18.34 -21 18 C-18.69 17.67 -16.38 17.34 -14 17 C-15.97768283 16.37032046 -17.95723935 15.74652511 -19.9375 15.125 C-21.03964844 14.77695312 -22.14179688 14.42890625 -23.27734375 14.0703125 C-30.84942707 11.89323923 -37.6681597 10.69085161 -45.5625 10.8125 C-46.36107422 10.81314453 -47.15964844 10.81378906 -47.98242188 10.81445312 C-53.06578134 10.85173938 -57.96824423 11.27953096 -63 12 C-62.67 11.34 -62.34 10.68 -62 10 C-62.99 9.34 -63.98 8.68 -65 8 C-58.19603779 6.23626799 -52.01295317 5.7193209 -45 5.8125 C-43.57107422 5.8134668 -43.57107422 5.8134668 -42.11328125 5.81445312 C-35.14078764 5.85921236 -35.14078764 5.85921236 -34 7 C-32.35561275 7.19978537 -30.70933765 7.38403611 -29.0625 7.5625 C-18.70652191 9.17010671 -9.29233811 14.35383094 0 19 C0 12.73 0 6.46 0 0 Z " fill="#492818" transform="translate(179,285)"/>
<path d="M0 0 C0.66 0 1.32 0 2 0 C2 0.99 2 1.98 2 3 C2.99 3 3.98 3 5 3 C5 3.66 5 4.32 5 5 C4.01 5 3.02 5 2 5 C2 7.31 2 9.62 2 12 C3.32 12 4.64 12 6 12 C6 9.03 6 6.06 6 3 C7.32 3 8.64 3 10 3 C10 5.97 10 8.94 10 12 C10.99 11.67 11.98 11.34 13 11 C13.33 9.02 13.66 7.04 14 5 C13.34 5 12.68 5 12 5 C12 4.34 12 3.68 12 3 C13.32 3 14.64 3 16 3 C16.06058594 3.62648437 16.12117188 4.25296875 16.18359375 4.8984375 C16.30927734 6.12433594 16.30927734 6.12433594 16.4375 7.375 C16.55931641 8.59316406 16.55931641 8.59316406 16.68359375 9.8359375 C16.89090114 12.04272805 16.89090114 12.04272805 18 14 C16.35 14 14.7 14 13 14 C12.34 15.32 11.68 16.64 11 18 C11.99 18.33 12.98 18.66 14 19 C14.495 26.92 14.495 26.92 15 35 C13.35 35 11.7 35 10 35 C10.33 32.03 10.66 29.06 11 26 C10.34 26 9.68 26 9 26 C8.67 28.97 8.34 31.94 8 35 C6.35 35 4.7 35 3 35 C3 32.03 3 29.06 3 26 C2.566875 27.670625 2.566875 27.670625 2.125 29.375 C1 33 1 33 -1 35 C-3.31 35 -5.62 35 -8 35 C-8.33 29.39 -8.66 23.78 -9 18 C-7.35 17.01 -5.7 16.02 -4 15 C-6.31 14.67 -8.62 14.34 -11 14 C-11 13.01 -11 12.02 -11 11 C-9.68 11.33 -8.36 11.66 -7 12 C-6.67 11.34 -6.34 10.68 -6 10 C-7.32 9.67 -8.64 9.34 -10 9 C-10.38218767 7.34385343 -10.71395102 5.67542976 -11 4 C-10 3 -10 3 -6.9375 2.9375 C-5.4834375 2.9684375 -5.4834375 2.9684375 -4 3 C-4.33 3.99 -4.66 4.98 -5 6 C-5.99 5.34 -6.98 4.68 -8 4 C-8 4.99 -8 5.98 -8 7 C-7.38125 7.12375 -6.7625 7.2475 -6.125 7.375 C-4 8 -4 8 -2 10 C-2.04125 8.906875 -2.0825 7.81375 -2.125 6.6875 C-2 3 -2 3 0 0 Z " fill="#C0A98B" transform="translate(176,245)"/>
<path d="M0 0 C2.41676191 1.52003085 2.41676191 1.52003085 4.9609375 0.58984375 C7.57838859 -0.83453661 10.18839461 -2.27094571 12.79296875 -3.71875 C29.81937947 -12.26329231 49.50122105 -11.22407449 67.3515625 -5.9296875 C69.48046875 -4.78125 69.48046875 -4.78125 70.29296875 -2.65625 C70.35484375 -2.0375 70.41671875 -1.41875 70.48046875 -0.78125 C69.52011719 -1.07 68.55976563 -1.35875 67.5703125 -1.65625 C47.26936036 -7.32397732 28.09276228 -6.61797711 9.30859375 3.16796875 C7.52461867 4.08770739 7.52461867 4.08770739 6.48046875 5.21875 C6.24619097 7.23469582 6.06710751 9.257224 5.91796875 11.28125 C5.83417969 12.38597656 5.75039062 13.49070313 5.6640625 14.62890625 C5.57318359 15.91087891 5.57318359 15.91087891 5.48046875 17.21875 C4.49046875 17.21875 3.50046875 17.21875 2.48046875 17.21875 C2.48949219 16.48269531 2.49851563 15.74664062 2.5078125 14.98828125 C2.33349023 8.55680984 2.33349023 8.55680984 -1.14453125 3.34375 C-13.89127075 -3.91738643 -27.54644175 -4.93694919 -41.84179688 -4.65429688 C-42.88142578 -4.64333984 -43.92105469 -4.63238281 -44.9921875 -4.62109375 C-45.93328369 -4.60425537 -46.87437988 -4.58741699 -47.84399414 -4.57006836 C-50.74549253 -4.79908525 -52.88726425 -5.57174941 -55.51953125 -6.78125 C-41.41740404 -15.59507951 -12.74955406 -9.01363822 0 0 Z " fill="#4C2C1B" transform="translate(176.51953125,181.78125)"/>
<path d="M0 0 C1.98 0 3.96 0 6 0 C6 35.31 6 70.62 6 107 C5.67 107 5.34 107 5 107 C5 72.35 5 37.7 5 2 C3.68 2 2.36 2 1 2 C1 38.3 1 74.6 1 112 C0.34 112 -0.32 112 -1 112 C-1.02333012 97.54467189 -1.04091332 83.08934669 -1.05181217 68.63400364 C-1.05697489 61.92258132 -1.06401713 55.21117068 -1.07543945 48.49975586 C-1.08626565 42.02886264 -1.09227626 35.55798158 -1.09487724 29.08708 C-1.09673198 26.61221055 -1.1003535 24.1373418 -1.10573006 21.66247749 C-1.11293693 18.20929627 -1.11399109 14.75616599 -1.11352539 11.30297852 C-1.11712067 10.26864182 -1.12071594 9.23430511 -1.12442017 8.16862488 C-1.1230455 7.23327911 -1.12167084 6.29793335 -1.12025452 5.33424377 C-1.12117631 4.5166134 -1.1220981 3.69898302 -1.12304783 2.85657597 C-1 1 -1 1 0 0 Z " fill="#AF6E39" transform="translate(102,190)"/>
<path d="M0 0 C1.98 0 3.96 0 6 0 C7 1 7 1 7.12304783 2.85657597 C7.12212604 3.67420634 7.12120424 4.49183672 7.12025452 5.33424377 C7.12162918 6.26958954 7.12300385 7.2049353 7.12442017 8.16862488 C7.12082489 9.20296158 7.11722961 10.23729828 7.11352539 11.30297852 C7.11367142 12.38577087 7.11381744 13.46856323 7.1139679 14.58416748 C7.11326823 18.18243374 7.10547333 21.78064897 7.09765625 25.37890625 C7.09579226 27.86612418 7.09436827 30.35334248 7.09336853 32.84056091 C7.0899335 38.73021191 7.08204277 44.6198439 7.07201904 50.50948709 C7.05976246 57.87025374 7.05437791 65.23102264 7.04882812 72.59179688 C7.03808815 85.72787398 7.02120089 98.86393583 7 112 C6.34 112 5.68 112 5 112 C5 75.7 5 39.4 5 2 C3.68 2 2.36 2 1 2 C1 36.32 1 70.64 1 106 C0.67 106 0.34 106 0 106 C0 71.02 0 36.04 0 0 Z " fill="#AD6D39" transform="translate(252,190)"/>
<path d="M0 0 C1.4540625 0.0309375 1.4540625 0.0309375 2.9375 0.0625 C2.6075 1.0525 2.2775 2.0425 1.9375 3.0625 C0.9475 2.4025 -0.0425 1.7425 -1.0625 1.0625 C-1.0625 2.0525 -1.0625 3.0425 -1.0625 4.0625 C-0.44375 4.18625 0.175 4.31 0.8125 4.4375 C2.9375 5.0625 2.9375 5.0625 4.9375 7.0625 C4.9375 8.0525 4.9375 9.0425 4.9375 10.0625 C7.2475 10.3925 9.5575 10.7225 11.9375 11.0625 C11.9375 11.7225 11.9375 12.3825 11.9375 13.0625 C12.5975 13.7225 13.2575 14.3825 13.9375 15.0625 C12.9475 15.3925 11.9575 15.7225 10.9375 16.0625 C10.82792969 16.88234375 10.71835938 17.7021875 10.60546875 18.546875 C10.44691406 19.62453125 10.28835937 20.7021875 10.125 21.8125 C9.97417969 22.87984375 9.82335937 23.9471875 9.66796875 25.046875 C8.89015989 28.25793617 8.44277577 29.89861401 5.9375 32.0625 C3.6275 32.0625 1.3175 32.0625 -1.0625 32.0625 C-1.3925 26.4525 -1.7225 20.8425 -2.0625 15.0625 C-0.4125 14.0725 1.2375 13.0825 2.9375 12.0625 C0.6275 11.7325 -1.6825 11.4025 -4.0625 11.0625 C-4.0625 10.0725 -4.0625 9.0825 -4.0625 8.0625 C-2.7425 8.3925 -1.4225 8.7225 -0.0625 9.0625 C0.2675 8.4025 0.5975 7.7425 0.9375 7.0625 C-0.3825 6.7325 -1.7025 6.4025 -3.0625 6.0625 C-3.44468767 4.40635343 -3.77645102 2.73792976 -4.0625 1.0625 C-3.0625 0.0625 -3.0625 0.0625 0 0 Z " fill="#E3CAA7" transform="translate(169.0625,247.9375)"/>
<path d="M0 0 C3.3 0 6.6 0 10 0 C10.33 1.32 10.66 2.64 11 4 C13.97 4 16.94 4 20 4 C20 4.99 20 5.98 20 7 C18.68 6.67 17.36 6.34 16 6 C16.845625 6.7425 17.69125 7.485 18.5625 8.25 C21 11 21 11 20.875 13.25 C20 15 20 15 19 16 C17.58429877 16.08651611 16.164405 16.10704904 14.74609375 16.09765625 C13.89208984 16.09443359 13.03808594 16.09121094 12.15820312 16.08789062 C11.26037109 16.07951172 10.36253906 16.07113281 9.4375 16.0625 C8.53580078 16.05798828 7.63410156 16.05347656 6.70507812 16.04882812 C4.47002411 16.03700244 2.23500398 16.01906638 0 16 C0 10.72 0 5.44 0 0 Z " fill="#E3CCA9" transform="translate(129,202)"/>
<path d="M0 0 C2.375 0.875 2.375 0.875 4.375 2.875 C4.766875 2.359375 5.15875 1.84375 5.5625 1.3125 C7.375 -0.125 7.375 -0.125 9.9375 0.0625 C12.375 0.875 12.375 0.875 14.375 2.875 C14.71990322 6.92761287 14.67663882 8.42254176 12.375 11.875 C9.6359515 12.17900756 7.17236367 12.29329599 4.4375 12.25 C3.70853516 12.26160156 2.97957031 12.27320313 2.22851562 12.28515625 C-3.07577363 12.25598509 -3.07577363 12.25598509 -5.6015625 10.50390625 C-7.11104672 8.10140655 -7.09989427 6.65652359 -6.625 3.875 C-4.53793823 0.9376538 -3.67791695 -0.1751389 0 0 Z " fill="#D8C09F" transform="translate(198.625,268.125)"/>
<path d="M0 0 C5.66666667 0 11.33333333 0 17 0 C17.33 3.96 17.66 7.92 18 12 C16.02 12 14.04 12 12 12 C12 11.01 12 10.02 12 9 C11.4225 9.495 10.845 9.99 10.25 10.5 C8 12 8 12 4 12 C4.33 13.32 4.66 14.64 5 16 C3.35 16 1.7 16 0 16 C0 10.72 0 5.44 0 0 Z " fill="#513B2C" transform="translate(151,206)"/>
<path d="M0 0 C1.67542976 0.28604898 3.34385343 0.61781233 5 1 C5 1.66 5 2.32 5 3 C5.94875 3.28875 6.8975 3.5775 7.875 3.875 C11 5 11 5 13 7 C13 8.32 13 9.64 13 11 C11.02 11 9.04 11 7 11 C7 11.99 7 12.98 7 14 C8.65 14 10.3 14 12 14 C11.67 14.99 11.34 15.98 11 17 C8.6875 17.25 8.6875 17.25 6 17 C3.59688549 14.76261752 3.03658575 13.53659096 2.8125 10.25 C2.874375 9.5075 2.93625 8.765 3 8 C2.34 8 1.68 8 1 8 C1.33 10.97 1.66 13.94 2 17 C0.02 17 -1.96 17 -4 17 C-4.55485582 5.26582698 -4.55485582 5.26582698 -1 1 C-0.67 0.67 -0.34 0.34 0 0 Z " fill="#CAB698" transform="translate(178,222)"/>
<path d="M0 0 C0 0.66 0 1.32 0 2 C-3.72571741 1.53428532 -7.17031897 0.95532617 -10.8125 0 C-21.64276353 -2.79625301 -32.99710108 -2.50224081 -44 -1 C-45.04800781 -0.85691406 -45.04800781 -0.85691406 -46.1171875 -0.7109375 C-47.74594172 -0.48199614 -49.37317833 -0.24229259 -51 0 C-51 -0.99 -51 -1.98 -51 -3 C-35.15627207 -9.23359787 -15.14660576 -7.57330288 0 0 Z " fill="#D6AE7C" transform="translate(171,193)"/>
<path d="M0 0 C0.495 1.98 0.495 1.98 1 4 C0.00540771 4.00616333 0.00540771 4.00616333 -1.00927734 4.01245117 C-15.49463066 4.16883994 -28.26284159 5.39704817 -42 10 C-44.32729568 10.69062026 -46.6617209 11.34710389 -49 12 C-48.421875 10.16015625 -48.421875 10.16015625 -47 8 C-42.20612117 5.78502719 -37.07860485 4.42617516 -32 3 C-30.85402344 2.67515625 -29.70804688 2.3503125 -28.52734375 2.015625 C-18.98844215 -0.34957633 -9.75107283 -0.29850223 0 0 Z " fill="#D7B07E" transform="translate(239,279)"/>
<path d="M0 0 C17.64935263 -0.96269196 33.95878421 2.70853828 50 10 C50 10.66 50 11.32 50 12 C43.55351486 10.68885048 37.3724449 8.92759206 31.11328125 6.90234375 C24.17589832 4.89163427 17.30132676 4.70705415 10.125 4.4375 C9.05507812 4.39431641 7.98515625 4.35113281 6.8828125 4.30664062 C4.25532246 4.20107183 1.62774578 4.09896209 -1 4 C-0.67 2.68 -0.34 1.36 0 0 Z " fill="#D7B07E" transform="translate(121,279)"/>
<path d="M0 0 C0.87309814 0.00346436 1.74619629 0.00692871 2.64575195 0.01049805 C9.28095884 0.12158605 16.15320197 0.446887 22.25 3.3125 C22.745 4.7975 22.745 4.7975 23.25 6.3125 C22.095 6.168125 20.94 6.02375 19.75 5.875 C19.01007813 5.78476563 18.27015625 5.69453125 17.5078125 5.6015625 C15.54247846 5.34994534 13.58294361 5.05381884 11.625 4.75 C0.70058785 3.47477679 -8.86517241 4.46202657 -19.3515625 7.4375 C-22.75 8.3125 -22.75 8.3125 -26.75 8.3125 C-26.42 7.3225 -26.09 6.3325 -25.75 5.3125 C-17.27663727 1.59611284 -9.21239721 -0.059275 0 0 Z " fill="#D6AE7B" transform="translate(216.75,186.6875)"/>
<path d="M0 0 C1.42892578 0.0009668 1.42892578 0.0009668 2.88671875 0.00195312 C9.85921236 0.04671236 9.85921236 0.04671236 11 1.1875 C13.01311449 1.58319108 15.03597208 1.93002191 17.0625 2.25 C18.16722656 2.42660156 19.27195313 2.60320312 20.41015625 2.78515625 C21.26480469 2.91792969 22.11945313 3.05070312 23 3.1875 C19.36391365 5.61155757 18.18379635 6.35706676 13.97265625 5.7578125 C9.10695234 5.15239785 4.33603904 5.03866283 -0.5625 5.0625 C-1.76036133 5.05669922 -1.76036133 5.05669922 -2.98242188 5.05078125 C-8.0742273 5.05908085 -12.96006347 5.46008648 -18 6.1875 C-17.67 5.5275 -17.34 4.8675 -17 4.1875 C-17.99 3.5275 -18.98 2.8675 -20 2.1875 C-13.19603779 0.42376799 -7.01295317 -0.0931791 0 0 Z " fill="#543423" transform="translate(134,290.8125)"/>
<path d="M0 0 C2.475 0.495 2.475 0.495 5 1 C5 1.66 5 2.32 5 3 C5.66 3 6.32 3 7 3 C7.33 2.01 7.66 1.02 8 0 C10.375 -0.125 10.375 -0.125 13 0 C15.49505962 2.49505962 15.35948376 3.67328888 15.625 7.125 C15.69976562 8.03507813 15.77453125 8.94515625 15.8515625 9.8828125 C15.90054688 10.58148438 15.94953125 11.28015625 16 12 C15.01 12 14.02 12 13 12 C13 10.02 13 8.04 13 6 C12.01 6.33 11.02 6.66 10 7 C10 7.66 10 8.32 10 9 C10.66 9.66 11.32 10.32 12 11 C11 12 11 12 8.49609375 12.09765625 C5.6640625 12.06510417 2.83203125 12.03255208 0 12 C0 8.04 0 4.08 0 0 Z " fill="#D1BB9B" transform="translate(203,227)"/>
<path d="M0 0 C4.29 0 8.58 0 13 0 C13.33 3.96 13.66 7.92 14 12 C12.35 12 10.7 12 9 12 C9 11.34 9 10.68 9 10 C8.01 10 7.02 10 6 10 C6 10.66 6 11.32 6 12 C4.02 12 2.04 12 0 12 C0 8.04 0 4.08 0 0 Z " fill="#E5CEAB" transform="translate(170,206)"/>
<path d="M0 0 C0.96164063 0.00064453 1.92328125 0.00128906 2.9140625 0.00195312 C9.98439166 0.04689166 9.98439166 0.04689166 11.125 1.1875 C12.47247084 1.41825082 13.82877565 1.59903063 15.1875 1.75 C16.486875 1.894375 17.78625 2.03875 19.125 2.1875 C19.125 3.5075 19.125 4.8275 19.125 6.1875 C17.26101562 5.93806641 17.26101562 5.93806641 15.359375 5.68359375 C8.67762482 4.93928759 2.01149646 5.17375833 -4.69921875 5.31445312 C-5.68019531 5.32541016 -6.66117188 5.33636719 -7.671875 5.34765625 C-8.55198242 5.36449463 -9.43208984 5.38133301 -10.33886719 5.39868164 C-13.16980993 5.16295143 -15.30124545 4.35909572 -17.875 3.1875 C-17.875 2.8575 -17.875 2.5275 -17.875 2.1875 C-11.8405293 0.07292786 -6.35977983 -0.08299163 0 0 Z " fill="#513121" transform="translate(226.875,290.8125)"/>
<path d="M0 0 C1.32 0 2.64 0 4 0 C4.33 5.28 4.66 10.56 5 16 C-2.71484375 16.09765625 -2.71484375 16.09765625 -5 16 C-6.89488952 14.10511048 -6.18019112 11.42860854 -6.23046875 8.91015625 C-6 7 -6 7 -4 5 C-1.375 4.875 -1.375 4.875 1 5 C0.67 3.35 0.34 1.7 0 0 Z " fill="#452D1F" transform="translate(201,243)"/>
<path d="M0 0 C1.32 0 2.64 0 4 0 C4.33 5.28 4.66 10.56 5 16 C-1.8359375 16.1953125 -1.8359375 16.1953125 -4 16 C-6 14 -6 14 -6.3125 10.5625 C-6 7 -6 7 -4.75 5.0625 C-3 4 -3 4 1 4 C0.67 2.68 0.34 1.36 0 0 Z " fill="#4A3325" transform="translate(217,202)"/>
<path d="M0 0 C1.32 0 2.64 0 4 0 C4 1.65 4 3.3 4 5 C4.804375 4.979375 5.60875 4.95875 6.4375 4.9375 C9 5 9 5 10 6 C10.27314815 11.73611111 10.27314815 11.73611111 10 14 C9.34 14.66 8.68 15.32 8 16 C5.69 16 3.38 16 1 16 C0.67 10.72 0.34 5.44 0 0 Z " fill="#4C3527" transform="translate(148,264)"/>
<path d="M0 0 C2 2 2 2 2.25 4.9375 C2 8 2 8 0 11 C-3.5 11.3125 -3.5 11.3125 -7 11 C-9 9 -9 9 -9.3125 6.0625 C-9 3 -9 3 -7.875 1.125 C-5.15781176 -0.50531294 -3.10347254 -0.33015665 0 0 Z " fill="#483122" transform="translate(216,248)"/>
<path d="M0 0 C6.57692308 0.57692308 6.57692308 0.57692308 8 2 C8.4626087 8.24521739 8.4626087 8.24521739 6.8125 10.9375 C4.37896796 12.36405327 2.77457104 12.35571424 0 12 C-2 10 -2 10 -2.265625 8.125 C-2.26046875 7.42375 -2.2553125 6.7225 -2.25 6 C-2.25515625 5.29875 -2.2603125 4.5975 -2.265625 3.875 C-2 2 -2 2 0 0 Z " fill="#452D1F" transform="translate(164,227)"/>
<path d="M0 0 C2.32528287 2.32528287 2.29511025 2.84665898 2.3125 6 C2.32925781 6.70125 2.34601563 7.4025 2.36328125 8.125 C2.18345703 9.053125 2.18345703 9.053125 2 10 C-1 12 -1 12 -4.125 11.75 C-5.548125 11.37875 -5.548125 11.37875 -7 11 C-8.39935013 8.20129973 -8.25265405 6.09501208 -8 3 C-5.8975876 -0.31959853 -3.76753493 -0.4830173 0 0 Z " fill="#4E3729" transform="translate(201,206)"/>
<path d="M0 0 C2.4375 0.8125 2.4375 0.8125 4.4375 2.8125 C4.78240322 6.86511287 4.73913882 8.36004176 2.4375 11.8125 C-0.5625 12.125 -0.5625 12.125 -3.5625 11.8125 C-5.5625 9.8125 -5.5625 9.8125 -5.875 6.375 C-5.5625 2.8125 -5.5625 2.8125 -4.375 0.8125 C-2.5625 -0.1875 -2.5625 -0.1875 0 0 Z " fill="#493123" transform="translate(208.5625,268.1875)"/>
<path d="M0 0 C3.3 0 6.6 0 10 0 C10 1.32 10 2.64 10 4 C9.34 4 8.68 4 8 4 C8 3.34 8 2.68 8 2 C6.68 2 5.36 2 4 2 C4 3.65 4 5.3 4 7 C5.65 7 7.3 7 9 7 C9 7.66 9 8.32 9 9 C7.35 9 5.7 9 4 9 C4 10.65 4 12.3 4 14 C5.32 14 6.64 14 8 14 C8 13.34 8 12.68 8 12 C8.99 12 9.98 12 11 12 C11 13.32 11 14.64 11 16 C7.37 16 3.74 16 0 16 C0 10.72 0 5.44 0 0 Z " fill="#503A2B" transform="translate(129,202)"/>
<path d="M0 0 C5.44183605 0.10203443 11.21437992 1.03888591 16.1875 3.25 C17.54296875 5.86328125 17.54296875 5.86328125 18.1875 8.25 C16.67736328 7.83427734 16.67736328 7.83427734 15.13671875 7.41015625 C4.11883997 4.52360707 -6.44284032 3.49960834 -17.8125 3.25 C-17.8125 2.92 -17.8125 2.59 -17.8125 2.25 C-16.81347656 2.18941406 -15.81445312 2.12882813 -14.78515625 2.06640625 C-13.49480469 1.98261719 -12.20445312 1.89882812 -10.875 1.8125 C-9.58722656 1.73128906 -8.29945313 1.65007812 -6.97265625 1.56640625 C-3.6280725 1.23153445 -3.24484071 0.28843029 0 0 Z " fill="#472618" transform="translate(228.8125,172.75)"/>
<path d="M0 0 C2.5 0.25 2.5 0.25 4.5 2.25 C4.625 4.875 4.625 4.875 4.5 7.25 C2.52 7.25 0.54 7.25 -1.5 7.25 C-1.17 7.91 -0.84 8.57 -0.5 9.25 C0.82 9.25 2.14 9.25 3.5 9.25 C3.17 10.24 2.84 11.23 2.5 12.25 C0.125 12.375 0.125 12.375 -2.5 12.25 C-4.5 10.25 -4.5 10.25 -4.765625 8.375 C-4.76046875 7.67375 -4.7553125 6.9725 -4.75 6.25 C-4.75515625 5.54875 -4.7603125 4.8475 -4.765625 4.125 C-4.31971142 0.97737476 -3.03899237 0.30389924 0 0 Z " fill="#6A5443" transform="translate(228.5,205.75)"/>
<path d="M0 0 C-0.33 0.99 -0.66 1.98 -1 3 C-1.89460938 3.06058594 -2.78921875 3.12117187 -3.7109375 3.18359375 C-4.92007813 3.26738281 -6.12921875 3.35117188 -7.375 3.4375 C-8.64601562 3.52515625 -9.91703125 3.6128125 -11.2265625 3.703125 C-15.20755344 4.01632926 -19.15386193 4.46816315 -23.109375 5.01171875 C-25 5 -25 5 -27 3 C-18.53350724 -0.96866848 -9.12493439 -0.11534327 0 0 Z " fill="#422011" transform="translate(226,172)"/>
<path d="M0 0 C2 2 2 2 2 6 C0.02 6 -1.96 6 -4 6 C-4 6.99 -4 7.98 -4 9 C-2.02 9 -0.04 9 2 9 C1.67 9.66 1.34 10.32 1 11 C-2.375 11.1875 -2.375 11.1875 -6 11 C-8.15502531 7.76746204 -8.46856135 6.74849077 -8 3 C-5.84871852 -0.2835349 -3.77529378 -0.48401202 0 0 Z " fill="#7E6753" transform="translate(162,248)"/>
<path d="M0 0 C1.32 0 2.64 0 4 0 C4 2.97 4 5.94 4 9 C4.99 8.67 5.98 8.34 7 8 C7.33 6.02 7.66 4.04 8 2 C7.34 2 6.68 2 6 2 C6 1.34 6 0.68 6 0 C7.32 0 8.64 0 10 0 C10.06058594 0.62648437 10.12117187 1.25296875 10.18359375 1.8984375 C10.26738281 2.71570313 10.35117188 3.53296875 10.4375 4.375 C10.55931641 5.59316406 10.55931641 5.59316406 10.68359375 6.8359375 C10.89090114 9.04272805 10.89090114 9.04272805 12 11 C10.35425434 11.02688151 8.70838587 11.04634123 7.0625 11.0625 C6.14597656 11.07410156 5.22945312 11.08570313 4.28515625 11.09765625 C2 11 2 11 1 10 C0.76712992 8.31816052 0.58735834 6.6287584 0.4375 4.9375 C0.35371094 4.01839844 0.26992187 3.09929687 0.18359375 2.15234375 C0.09271484 1.08693359 0.09271484 1.08693359 0 0 Z " fill="#3C2518" transform="translate(182,248)"/>
<path d="M0 0 C1.65 0 3.3 0 5 0 C5.33 3.96 5.66 7.92 6 12 C4.02 12 2.04 12 0 12 C-1.29449495 8.11651516 -1.13203312 5.09302664 -1 1 C-0.67 0.67 -0.34 0.34 0 0 Z " fill="#87705A" transform="translate(163,206)"/>
<path d="M0 0 C0.99 0 1.98 0 3 0 C3.33 2.97 3.66 5.94 4 9 C5.32 9 6.64 9 8 9 C8 7.35 8 5.7 8 4 C8.66 3.67 9.32 3.34 10 3 C10.125 6.375 10.125 6.375 10 10 C9.34 10.66 8.68 11.32 8 12 C6.68 12 5.36 12 4 12 C4.33 13.32 4.66 14.64 5 16 C3.35 16 1.7 16 0 16 C0 10.72 0 5.44 0 0 Z " fill="#3D2518" transform="translate(140,227)"/>
<path d="M0 0 C2.0625 0.4375 2.0625 0.4375 4 1 C4 1.66 4 2.32 4 3 C3.01 3 2.02 3 1 3 C0.67 3.66 0.34 4.32 0 5 C0.99 5 1.98 5 3 5 C3 5.66 3 6.32 3 7 C2.01 7 1.02 7 0 7 C0 9.64 0 12.28 0 15 C0.66 15 1.32 15 2 15 C2 15.66 2 16.32 2 17 C0.02 17 -1.96 17 -4 17 C-4.55485582 5.26582698 -4.55485582 5.26582698 -1 1 C-0.67 0.67 -0.34 0.34 0 0 Z " fill="#584334" transform="translate(178,222)"/>
<path d="M0 0 C1.4540625 0.0309375 1.4540625 0.0309375 2.9375 0.0625 C2.9375 1.0525 2.9375 2.0425 2.9375 3.0625 C1.6175 2.7325 0.2975 2.4025 -1.0625 2.0625 C-0.216875 2.805 0.62875 3.5475 1.5 4.3125 C3.9375 7.0625 3.9375 7.0625 3.8125 9.3125 C2.9375 11.0625 2.9375 11.0625 1.9375 12.0625 C-0.06208364 12.10330783 -2.06295254 12.10504356 -4.0625 12.0625 C-3.7325 10.7425 -3.4025 9.4225 -3.0625 8.0625 C-3.0625 8.7225 -3.0625 9.3825 -3.0625 10.0625 C-2.0725 10.0625 -1.0825 10.0625 -0.0625 10.0625 C-0.0625 9.0725 -0.0625 8.0825 -0.0625 7.0625 C-1.3825 6.7325 -2.7025 6.4025 -4.0625 6.0625 C-4.105221 4.39638095 -4.10313832 2.72867115 -4.0625 1.0625 C-3.0625 0.0625 -3.0625 0.0625 0 0 Z " fill="#4E3728" transform="translate(146.0625,205.9375)"/>
<path d="M0 0 C2.375 -0.125 2.375 -0.125 5 0 C7.49505962 2.49505962 7.35948376 3.67328888 7.625 7.125 C7.69976562 8.03507813 7.77453125 8.94515625 7.8515625 9.8828125 C7.90054688 10.58148438 7.94953125 11.28015625 8 12 C7.01 12 6.02 12 5 12 C5 10.02 5 8.04 5 6 C4.01 6.33 3.02 6.66 2 7 C2 7.66 2 8.32 2 9 C2.66 9.66 3.32 10.32 4 11 C2.0625 11.5625 2.0625 11.5625 0 12 C-1 11 -1 11 -1.0625 8.4375 C-1.041875 7.633125 -1.02125 6.82875 -1 6 C0.65 5.67 2.3 5.34 4 5 C4 4.01 4 3.02 4 2 C2.35 2.33 0.7 2.66 -1 3 C-0.67 2.01 -0.34 1.02 0 0 Z " fill="#3F2619" transform="translate(211,227)"/>
<path d="M0 0 C2.125 0.375 2.125 0.375 4 1 C2.515 2.485 2.515 2.485 1 4 C2.32 4 3.64 4 5 4 C5 3.01 5 2.02 5 1 C5.66 1 6.32 1 7 1 C7 2.65 7 4.3 7 6 C5.02 6 3.04 6 1 6 C1.33 6.66 1.66 7.32 2 8 C4.52733235 8.65555119 4.52733235 8.65555119 7 9 C6.67 9.66 6.34 10.32 6 11 C3.125 11.125 3.125 11.125 0 11 C-2 9 -2 9 -2.25 5.5 C-2 2 -2 2 0 0 Z " fill="#3A2215" transform="translate(142,248)"/>
<path d="M0 0 C0.99 0 1.98 0 3 0 C3 4.62 3 9.24 3 14 C4.32 13.67 5.64 13.34 7 13 C8.3045656 10.00384054 8.3045656 10.00384054 9 7 C9.33 7 9.66 7 10 7 C10.125 10.375 10.125 10.375 10 14 C9.34 14.66 8.68 15.32 8 16 C5.69 16 3.38 16 1 16 C0.67 10.72 0.34 5.44 0 0 Z " fill="#31170B" transform="translate(167,264)"/>
<path d="M0 0 C1.4540625 0.0309375 1.4540625 0.0309375 2.9375 0.0625 C2.6075 1.0525 2.2775 2.0425 1.9375 3.0625 C0.9475 2.4025 -0.0425 1.7425 -1.0625 1.0625 C-1.0625 2.0525 -1.0625 3.0425 -1.0625 4.0625 C0.2575 4.3925 1.5775 4.7225 2.9375 5.0625 C3.31968767 6.71864657 3.65145102 8.38707024 3.9375 10.0625 C2.9375 11.0625 2.9375 11.0625 -0.625 11.125 C-1.759375 11.104375 -2.89375 11.08375 -4.0625 11.0625 C-4.0625 10.0725 -4.0625 9.0825 -4.0625 8.0625 C-2.7425 8.3925 -1.4225 8.7225 -0.0625 9.0625 C0.2675 8.4025 0.5975 7.7425 0.9375 7.0625 C-0.3825 6.7325 -1.7025 6.4025 -3.0625 6.0625 C-3.44468767 4.40635343 -3.77645102 2.73792976 -4.0625 1.0625 C-3.0625 0.0625 -3.0625 0.0625 0 0 Z " fill="#462E20" transform="translate(169.0625,247.9375)"/>
<path d="M0 0 C0 0.66 0 1.32 0 2 C14.19 2 28.38 2 43 2 C43 2.33 43 2.66 43 3 C26.5 3 10 3 -7 3 C-4.74624683 0.74624683 -3.20799182 0 0 0 Z " fill="#B87540" transform="translate(199,300)"/>
<path d="M0 0 C0.33 1.32 0.66 2.64 1 4 C0.01 4 -0.98 4 -2 4 C-2 3.34 -2 2.68 -2 2 C-2.99 2 -3.98 2 -5 2 C-5 4.31 -5 6.62 -5 9 C-3.35 9 -1.7 9 0 9 C-0.33 9.99 -0.66 10.98 -1 12 C-3.375 12.1875 -3.375 12.1875 -6 12 C-8.31282587 8.53076119 -8.42478586 7.07794425 -8 3 C-5.87141064 -0.36093057 -3.79035926 -0.30732643 0 0 Z " fill="#50392A" transform="translate(201,227)"/>
<path d="M0 0 C0.99 0.33 1.98 0.66 3 1 C2.67 1.99 2.34 2.98 2 4 C3.32 4 4.64 4 6 4 C6 3.01 6 2.02 6 1 C6.66 1 7.32 1 8 1 C8 2.32 8 3.64 8 5 C6.02 5 4.04 5 2 5 C2 5.99 2 6.98 2 8 C3.65 8 5.3 8 7 8 C6.67 8.99 6.34 9.98 6 11 C3.625 11.125 3.625 11.125 1 11 C-1 9 -1 9 -1.23046875 7.08984375 C-1.11111111 1.11111111 -1.11111111 1.11111111 0 0 Z " fill="#3C2317" transform="translate(183,228)"/>
<path d="M0 0 C2.64 0 5.28 0 8 0 C8 0.99 8 1.98 8 3 C6.68 3 5.36 3 4 3 C4 5.31 4 7.62 4 10 C4.66 10 5.32 10 6 10 C6 10.66 6 11.32 6 12 C4.02 12 2.04 12 0 12 C0 8.04 0 4.08 0 0 Z " fill="#523C2D" transform="translate(170,206)"/>
<path d="M0 0 C0.33 0 0.66 0 1 0 C1 1.65 1 3.3 1 5 C2.65 5 4.3 5 6 5 C6 8.38023517 5.12544378 10.83468937 4 14 C2.68 14 1.36 14 0 14 C-0.77916092 8.97874074 -1.13016601 5.02296004 0 0 Z " fill="#594435" transform="translate(170,264)"/>
<path d="M0 0 C1.32 0 2.64 0 4 0 C4.33 5.28 4.66 10.56 5 16 C3.35 16 1.7 16 0 16 C0 10.72 0 5.44 0 0 Z " fill="#4C3526" transform="translate(179,264)"/>
<path d="M0 0 C2.64 0 5.28 0 8 0 C8 0.99 8 1.98 8 3 C6.68 3 5.36 3 4 3 C4 5.31 4 7.62 4 10 C4.66 10 5.32 10 6 10 C6 10.66 6 11.32 6 12 C4.02 12 2.04 12 0 12 C0 8.04 0 4.08 0 0 Z " fill="#4F392A" transform="translate(152,227)"/>
<path d="M0 0 C0.99 0 1.98 0 3 0 C3 0.66 3 1.32 3 2 C3.99 2 4.98 2 6 2 C6 2.66 6 3.32 6 4 C5.01 4 4.02 4 3 4 C3 6.64 3 9.28 3 12 C3.99 12.33 4.98 12.66 6 13 C4.34385343 13.38218767 2.67542976 13.71395102 1 14 C-0.72488307 12.27511693 -0.41081633 9.91546061 -0.625 7.5625 C-0.76808594 6.07943359 -0.76808594 6.07943359 -0.9140625 4.56640625 C-1 2 -1 2 0 0 Z " fill="#4F392C" transform="translate(186,204)"/>
<path d="M0 0 C0.66 0 1.32 0 2 0 C2 0.99 2 1.98 2 3 C2.99 3 3.98 3 5 3 C5 3.66 5 4.32 5 5 C4.01 5 3.02 5 2 5 C2 7.31 2 9.62 2 12 C2.99 12 3.98 12 5 12 C5 12.66 5 13.32 5 14 C3.33388095 14.042721 1.66617115 14.04063832 0 14 C-1.63909015 12.36090985 -1.43623081 10.37663301 -1.6875 8.125 C-1.79449219 7.24070313 -1.90148437 6.35640625 -2.01171875 5.4453125 C-2 3 -2 3 0 0 Z " fill="#4B3729" transform="translate(176,245)"/>
<path d="M0 0 C2.31 0.33 4.62 0.66 7 1 C6.34 1.66 5.68 2.32 5 3 C4.59952556 5.32275177 4.2602896 7.65739357 4 10 C4.66 10.33 5.32 10.66 6 11 C5.01 11 4.02 11 3 11 C3 12.32 3 13.64 3 15 C3.66 15.33 4.32 15.66 5 16 C3.35 16 1.7 16 0 16 C0 10.72 0 5.44 0 0 Z " fill="#40281B" transform="translate(151,206)"/>
<path d="M0 0 C2.9375 0.75 2.9375 0.75 6 2 C6.75 4.0625 6.75 4.0625 7 6 C7.66 6.33 8.32 6.66 9 7 C9 10.63 9 14.26 9 18 C8.34 18 7.68 18 7 18 C7.020625 17.34773438 7.04125 16.69546875 7.0625 16.0234375 C6.97953452 10.52107575 6.97953452 10.52107575 4.15234375 6 C2.15433255 4.53408702 0.16099587 3.21094529 -2 2 C-1.34 1.34 -0.68 0.68 0 0 Z " fill="#3E1F10" transform="translate(172,180)"/>
<path d="M0 0 C-0.66 2.64 -1.32 5.28 -2 8 C-3.32 8.33 -4.64 8.66 -6 9 C-7 8 -7 8 -7.09765625 6.15234375 C-7.06510417 4.1015625 -7.03255208 2.05078125 -7 0 C-4.3333581 -1.33332095 -2.83319697 -0.67102033 0 0 Z " fill="#5C4536" transform="translate(150,228)"/>
<path d="M0 0 C0.7425 0.2475 1.485 0.495 2.25 0.75 C2.25 1.74 2.25 2.73 2.25 3.75 C1.59 3.75 0.93 3.75 0.25 3.75 C0.25 3.09 0.25 2.43 0.25 1.75 C-0.74 1.75 -1.73 1.75 -2.75 1.75 C-2.75 4.39 -2.75 7.03 -2.75 9.75 C-1.1 9.75 0.55 9.75 2.25 9.75 C1.92 10.41 1.59 11.07 1.25 11.75 C-3.19936709 12.11075949 -3.19936709 12.11075949 -5.5625 10.5625 C-7.2019739 8.06014509 -7.25188668 6.68962197 -6.75 3.75 C-4.5940554 0.7157076 -3.79490657 -0.34499151 0 0 Z " fill="#3A2013" transform="translate(198.75,268.25)"/>
<path d="M0 0 C1.32 0 2.64 0 4 0 C4 3.96 4 7.92 4 12 C3.34 12 2.68 12 2 12 C1.67 10.35 1.34 8.7 1 7 C-0.94074861 7.27617533 -0.94074861 7.27617533 -3 8 C-3.66 8.99 -4.32 9.98 -5 11 C-5.125 8.625 -5.125 8.625 -5 6 C-4.34 5.34 -3.68 4.68 -3 4 C-1.68 4 -0.36 4 1 4 C0.67 2.68 0.34 1.36 0 0 Z " fill="#3B2317" transform="translate(217,202)"/>
<path d="M0 0 C3.3 0 6.6 0 10 0 C10 1.32 10 2.64 10 4 C9.34 4 8.68 4 8 4 C8 3.34 8 2.68 8 2 C6.68 2 5.36 2 4 2 C4 3.65 4 5.3 4 7 C5.65 7 7.3 7 9 7 C9 7.66 9 8.32 9 9 C6.69 9 4.38 9 2 9 C2 6.69 2 4.38 2 2 C1.34 2 0.68 2 0 2 C0 1.34 0 0.68 0 0 Z " fill="#422A1C" transform="translate(129,202)"/>
<path d="M0 0 C1.65 0.33 3.3 0.66 5 1 C5.1953125 7.0546875 5.1953125 7.0546875 5 9 C3 11 3 11 -0.625 11.125 C-1.73875 11.08375 -2.8525 11.0425 -4 11 C-4 9.02 -4 7.04 -4 5 C-3.34 4.67 -2.68 4.34 -2 4 C-2 5.65 -2 7.3 -2 9 C-0.68 8.67 0.64 8.34 2 8 C2 5.69 2 3.38 2 1 C1.34 0.67 0.68 0.34 0 0 Z " fill="#3C2316" transform="translate(153,269)"/>
<path d="M0 0 C1.14210937 -0.01417969 2.28421875 -0.02835938 3.4609375 -0.04296875 C6.46436816 0.17579966 8.10425934 0.61669363 10.625 2.1875 C7.59076019 3.7046199 4.44995206 3.37189257 1.125 3.375 C0.43535156 3.38724609 -0.25429687 3.39949219 -0.96484375 3.41210938 C-2.76977494 3.41738695 -4.57417842 3.30934458 -6.375 3.1875 C-7.035 2.5275 -7.695 1.8675 -8.375 1.1875 C-5.5555932 -0.2222034 -3.14232774 0.01765353 0 0 Z " fill="#401F10" transform="translate(139.375,171.8125)"/>
<path d="M0 0 C0.66 0.33 1.32 0.66 2 1 C4.204364 1.22950319 6.41392173 1.41075933 8.625 1.5625 C9.81351563 1.64628906 11.00203125 1.73007813 12.2265625 1.81640625 C13.59941406 1.90728516 13.59941406 1.90728516 15 2 C15 2.33 15 2.66 15 3 C11.77186442 3.22702385 8.54261311 3.42828723 5.3125 3.625 C4.40048828 3.68945312 3.48847656 3.75390625 2.54882812 3.8203125 C-5.81733316 4.30707097 -5.81733316 4.30707097 -10 2 C-6.59659693 -0.09440189 -3.95562822 -0.25797575 0 0 Z " fill="#62432F" transform="translate(131,173)"/>
<path d="M0 0 C1.32 0 2.64 0 4 0 C4.33 3.96 4.66 7.92 5 12 C3.35 12 1.7 12 0 12 C0 8.04 0 4.08 0 0 Z " fill="#4B3326" transform="translate(179,206)"/>
<path d="M0 0 C2 2 2 2 2.125 5.125 C2.08375 6.07375 2.0425 7.0225 2 8 C1.34 8 0.68 8 0 8 C-0.33 6.02 -0.66 4.04 -1 2 C-3.03241727 2.63979849 -3.03241727 2.63979849 -5 4 C-5.81171228 6.55519921 -5.81171228 6.55519921 -6 9 C-6.66 9 -7.32 9 -8 9 C-8.36190476 3.57142857 -8.36190476 3.57142857 -6.8125 1.125 C-4.38241919 -0.38332602 -2.80984248 -0.36023622 0 0 Z " fill="#3E2518" transform="translate(201,206)"/>
<path d="M0 0 C1.98 0 3.96 0 6 0 C6 2.31 6 4.62 6 7 C4.02 7.99 4.02 7.99 2 9 C2 8.34 2 7.68 2 7 C1.34 7 0.68 7 0 7 C0 4.69 0 2.38 0 0 Z " fill="#D2BB9B" transform="translate(156,230)"/>
<path d="M0 0 C0.33 0.99 0.66 1.98 1 3 C1.66 3 2.32 3 3 3 C3 4.65 3 6.3 3 8 C2.34 7.34 1.68 6.68 1 6 C0.34 6.66 -0.32 7.32 -1 8 C-1 7.34 -1 6.68 -1 6 C-2.65 6 -4.3 6 -6 6 C-6 4.35 -6 2.7 -6 1 C-4.68 1 -3.36 1 -2 1 C-2 1.66 -2 2.32 -2 3 C-1.34 3 -0.68 3 0 3 C0 2.01 0 1.02 0 0 Z " fill="#CDB898" transform="translate(139,203)"/>
<path d="M0 0 C1.32 0 2.64 0 4 0 C4.33 3.63 4.66 7.26 5 11 C3.35 11 1.7 11 0 11 C0 7.37 0 3.74 0 0 Z " fill="#422B1D" transform="translate(186,269)"/>
<path d="M0 0 C1.65 0 3.3 0 5 0 C5 2.97 5 5.94 5 9 C4.67 8.34 4.34 7.68 4 7 C2.68 7 1.36 7 0 7 C0 4.69 0 2.38 0 0 Z " fill="#E0CAA7" transform="translate(178,250)"/>
<path d="M0 0 C1.32 0 2.64 0 4 0 C4.33 3.63 4.66 7.26 5 11 C3.35 11 1.7 11 0 11 C0 7.37 0 3.74 0 0 Z " fill="#371E12" transform="translate(203,227)"/>
<path d="M0 0 C0.99 0.33 1.98 0.66 3 1 C3.25 6.625 3.25 6.625 1 10 C-2.625 10.1875 -2.625 10.1875 -6 10 C-5.34 9.01 -4.68 8.02 -4 7 C-3.01 7.33 -2.02 7.66 -1 8 C-0.67 5.36 -0.34 2.72 0 0 Z " fill="#40281B" transform="translate(215,249)"/>
<path d="M0 0 C0.99 0.66 1.98 1.32 3 2 C3.1875 5.125 3.1875 5.125 3 8 C1.68 8 0.36 8 -1 8 C-2 7 -2 7 -2.1875 4.5625 C-2 2 -2 2 0 0 Z " fill="#D7C09F" transform="translate(212,249)"/>
<path d="M0 0 C0.33 0.99 0.66 1.98 1 3 C-0.62324086 3.22162329 -2.248721 3.42689803 -3.875 3.625 C-5.23238281 3.79902344 -5.23238281 3.79902344 -6.6171875 3.9765625 C-7.40351563 3.98429688 -8.18984375 3.99203125 -9 4 C-9.66 3.34 -10.32 2.68 -11 2 C-7.17010894 0.19769832 -4.21878192 -0.19622241 0 0 Z " fill="#492716" transform="translate(210,173)"/>
<path d="M0 0 C-0.33 0.99 -0.66 1.98 -1 3 C-2.32 2.34 -3.64 1.68 -5 1 C-5 1.99 -5 2.98 -5 4 C-3.02 4 -1.04 4 1 4 C1 4.33 1 4.66 1 5 C0.2575 5.144375 -0.485 5.28875 -1.25 5.4375 C-3.52027739 5.90187492 -5.75759479 6.41863569 -8 7 C-7.67 5.68 -7.34 4.36 -7 3 C-8.65 2.67 -10.3 2.34 -12 2 C-12 1.67 -12 1.34 -12 1 C-7.93631321 0.22596442 -4.13574827 -0.0984702 0 0 Z " fill="#D6C0A0" transform="translate(170,255)"/>
<path d="M0 0 C2.5625 0.1875 2.5625 0.1875 4.5625 2.1875 C4.5625 3.5075 4.5625 4.8275 4.5625 6.1875 C2.2525 6.1875 -0.0575 6.1875 -2.4375 6.1875 C-1.1175 5.8575 0.2025 5.5275 1.5625 5.1875 C0.9025 4.1975 0.2425 3.2075 -0.4375 2.1875 C-1.7575 3.1775 -3.0775 4.1675 -4.4375 5.1875 C-3.32386364 0.25568182 -3.32386364 0.25568182 0 0 Z " fill="#3F281B" transform="translate(159.4375,247.8125)"/>
<path d="M0 0 C0.99 0 1.98 0 3 0 C3 2.97 3 5.94 3 9 C3.66 9 4.32 9 5 9 C5 9.66 5 10.32 5 11 C3.02 11 1.04 11 -1 11 C-1 10.34 -1 9.68 -1 9 C-0.34 9 0.32 9 1 9 C0.67 6.03 0.34 3.06 0 0 Z " fill="#442C1F" transform="translate(161,269)"/>
<path d="M0 0 C0.33 0 0.66 0 1 0 C1.33 1.98 1.66 3.96 2 6 C0.68 6.33 -0.64 6.66 -2 7 C-2 6.34 -2 5.68 -2 5 C-3.65 5 -5.3 5 -7 5 C-7 4.01 -7 3.02 -7 2 C-4.69 2 -2.38 2 0 2 C0 1.34 0 0.68 0 0 Z " fill="#D7C09F" transform="translate(192,231)"/>
<path d="M0 0 C1.134375 0.020625 2.26875 0.04125 3.4375 0.0625 C1.59491754 1.99113714 0.08871023 2.98259594 -2.58007812 3.31005859 C-4.99677459 3.35755495 -7.39648212 3.32361304 -9.8125 3.25 C-10.65296875 3.23646484 -11.4934375 3.22292969 -12.359375 3.20898438 C-14.42735938 3.17373464 -16.49501271 3.1199302 -18.5625 3.0625 C-18.5625 2.7325 -18.5625 2.4025 -18.5625 2.0625 C-17.56347656 2.00191406 -16.56445312 1.94132813 -15.53515625 1.87890625 C-14.24480469 1.79511719 -12.95445312 1.71132812 -11.625 1.625 C-10.33722656 1.54378906 -9.04945313 1.46257812 -7.72265625 1.37890625 C-3.92668627 0.99884003 -3.958203 0.06944216 0 0 Z " fill="#694C3A" transform="translate(229.5625,172.9375)"/>
<path d="M0 0 C0.99 0.33 1.98 0.66 3 1 C3 3.31 3 5.62 3 8 C1.68 8 0.36 8 -1 8 C-1.04241723 5.66705225 -1.04092937 3.33297433 -1 1 C-0.67 0.67 -0.34 0.34 0 0 Z " fill="#E5CDAA" transform="translate(207,270)"/>
<path d="M0 0 C0.99 0 1.98 0 3 0 C3 2.64 3 5.28 3 8 C1.68 7.67 0.36 7.34 -1 7 C-1.04254356 5.00045254 -1.04080783 2.99958364 -1 1 C-0.67 0.67 -0.34 0.34 0 0 Z " fill="#E4CCA9" transform="translate(197,208)"/>
<path d="M0 0 C0.99 0 1.98 0 3 0 C4.39151652 4.79300133 3.68662689 9.15135782 3 14 C2.67 14 2.34 14 2 14 C2 11.03 2 8.06 2 5 C1.01 5 0.02 5 -1 5 C-0.67 3.35 -0.34 1.7 0 0 Z " fill="#9B866E" transform="translate(162,264)"/>
<path d="M0 0 C1.32 0.33 2.64 0.66 4 1 C4 2.98 4 4.96 4 7 C2.68 7 1.36 7 0 7 C0 4.69 0 2.38 0 0 Z " fill="#E6CFAB" transform="translate(165,229)"/>
<path d="M0 0 C0.66 0.33 1.32 0.66 2 1 C1.125 7.875 1.125 7.875 0 9 C-0.99 9.33 -1.98 9.66 -3 10 C-3 7.36 -3 4.72 -3 2 C-2.01 2 -1.02 2 0 2 C0 1.34 0 0.68 0 0 Z " fill="#DEC7A5" transform="translate(192,206)"/>
<path d="M0 0 C0.33 0 0.66 0 1 0 C1 1.65 1 3.3 1 5 C1.66 5 2.32 5 3 5 C3.125 8.375 3.125 8.375 3 12 C2.34 12.66 1.68 13.32 1 14 C-0.38226016 11.23547967 -0.09525387 8.9538637 -0.0625 5.875 C-0.05347656 4.77929688 -0.04445312 3.68359375 -0.03515625 2.5546875 C-0.02355469 1.71164062 -0.01195312 0.86859375 0 0 Z " fill="#F1D8B2" transform="translate(184,266)"/>
<path d="M0 0 C1.32 0.33 2.64 0.66 4 1 C4 2.98 4 4.96 4 7 C2.68 7.33 1.36 7.66 0 8 C0 5.36 0 2.72 0 0 Z " fill="#D8C1A0" transform="translate(186,249)"/>
<path d="M0 0 C0.66 0 1.32 0 2 0 C2 2.64 2 5.28 2 8 C2.66 8 3.32 8 4 8 C4 8.66 4 9.32 4 10 C2.02 10 0.04 10 -2 10 C-2 9.34 -2 8.68 -2 8 C-1.34 8 -0.68 8 0 8 C0 5.36 0 2.72 0 0 Z " fill="#3E271A" transform="translate(176,229)"/>
<path d="M0 0 C0.66 0 1.32 0 2 0 C2.33 1.65 2.66 3.3 3 5 C4.65 5.33 6.3 5.66 8 6 C7.67 6.99 7.34 7.98 7 9 C4.625 9.125 4.625 9.125 2 9 C0 7 0 7 -0.125 3.375 C-0.08375 2.26125 -0.0425 1.1475 0 0 Z " fill="#40281B" transform="translate(224,209)"/>
<path d="M0 0 C0.66 0 1.32 0 2 0 C2.19412181 1.47831221 2.38012131 2.95769316 2.5625 4.4375 C2.66691406 5.26121094 2.77132812 6.08492187 2.87890625 6.93359375 C2.91886719 7.61550781 2.95882812 8.29742187 3 9 C2 10 2 10 -1.5625 10.0625 C-2.696875 10.041875 -3.83125 10.02125 -5 10 C-5 9.67 -5 9.34 -5 9 C-3.02 9 -1.04 9 1 9 C0.67 8.34 0.34 7.68 0 7 C-0.04022391 4.6670134 -0.04320247 2.33293334 0 0 Z " fill="#F0D8B2" transform="translate(179,230)"/>
<path d="M0 0 C1.65 0 3.3 0 5 0 C4.67 0.99 4.34 1.98 4 3 C3.77674186 5.05893621 3.59294241 7.12233653 3.4375 9.1875 C3.35371094 10.27417969 3.26992187 11.36085937 3.18359375 12.48046875 C3.12300781 13.31191406 3.06242188 14.14335937 3 15 C2.01 14.67 1.02 14.34 0 14 C0.66 14 1.32 14 2 14 C2 10.37 2 6.74 2 3 C1.01 2.67 0.02 2.34 -1 2 C-0.67 1.34 -0.34 0.68 0 0 Z " fill="#644A39" transform="translate(179,184)"/>
<path d="M0 0 C1.32 0.33 2.64 0.66 4 1 C4 2.65 4 4.3 4 6 C2.68 6.33 1.36 6.66 0 7 C0 4.69 0 2.38 0 0 Z " fill="#E2CBA9" transform="translate(171,271)"/>
<path d="M0 0 C1.32 0.33 2.64 0.66 4 1 C4 2.65 4 4.3 4 6 C2.68 6.33 1.36 6.66 0 7 C0 4.69 0 2.38 0 0 Z " fill="#E5CEAA" transform="translate(152,271)"/>
<path d="M0 0 C0.33 0 0.66 0 1 0 C1.125 3.375 1.125 3.375 1 7 C-1 9 -1 9 -4.625 9.125 C-5.73875 9.08375 -6.8525 9.0425 -8 9 C-5 7 -5 7 -2 6 C-0.77479736 2.99152582 -0.77479736 2.99152582 0 0 Z " fill="#422A1C" transform="translate(176,271)"/>
<path d="M0 0 C0.99 0 1.98 0 3 0 C3 2.31 3 4.62 3 7 C1.68 6.67 0.36 6.34 -1 6 C-1.042721 4.33388095 -1.04063832 2.66617115 -1 1 C-0.67 0.67 -0.34 0.34 0 0 Z " fill="#E5CEAB" transform="translate(199,250)"/>
<path d="M0 0 C0.66 0.99 1.32 1.98 2 3 C0.68 3.33 -0.64 3.66 -2 4 C-2 4.66 -2 5.32 -2 6 C-1.34 6.66 -0.68 7.32 0 8 C-1.9375 8.5625 -1.9375 8.5625 -4 9 C-5 8 -5 8 -5.0625 5.4375 C-5.041875 4.633125 -5.02125 3.82875 -5 3 C-3.35 2.67 -1.7 2.34 0 2 C0 1.34 0 0.68 0 0 Z " fill="#462E20" transform="translate(215,230)"/>
<path d="M0 0 C1.32 0.33 2.64 0.66 4 1 C4 2.65 4 4.3 4 6 C2.68 6.33 1.36 6.66 0 7 C0 4.69 0 2.38 0 0 Z " fill="#E9D3B0" transform="translate(155,209)"/>
<path d="M0 0 C0.99 0 1.98 0 3 0 C3 2.31 3 4.62 3 7 C1.68 6.67 0.36 6.34 -1 6 C-1.042721 4.33388095 -1.04063832 2.66617115 -1 1 C-0.67 0.67 -0.34 0.34 0 0 Z " fill="#E5CEAB" transform="translate(215,208)"/>
<path d="M0 0 C0.66 0.66 1.32 1.32 2 2 C-1.63 2 -5.26 2 -9 2 C-9 1.34 -9 0.68 -9 0 C-5.88135455 -1.55932272 -3.33704665 -0.65549131 0 0 Z " fill="#442313" transform="translate(161,296)"/>
<path d="M0 0 C0.7425 0.2475 1.485 0.495 2.25 0.75 C2.25 1.74 2.25 2.73 2.25 3.75 C1.59 3.75 0.93 3.75 0.25 3.75 C0.25 3.09 0.25 2.43 0.25 1.75 C-0.74 1.75 -1.73 1.75 -2.75 1.75 C-2.75 2.41 -2.75 3.07 -2.75 3.75 C-3.74 4.245 -3.74 4.245 -4.75 4.75 C-5.88350534 6.76669827 -5.88350534 6.76669827 -6.75 8.75 C-7.11554789 5.46006898 -7.01218503 4.11900115 -5.0625 1.375 C-2.75 -0.25 -2.75 -0.25 0 0 Z " fill="#513B2C" transform="translate(198.75,268.25)"/>
<path d="M0 0 C0.33 0.99 0.66 1.98 1 3 C2.65 3 4.3 3 6 3 C5.67 3.99 5.34 4.98 5 6 C3.35 6 1.7 6 0 6 C-0.66 4.68 -1.32 3.36 -2 2 C-1.34 2 -0.68 2 0 2 C0 1.34 0 0.68 0 0 Z " fill="#523A2B" transform="translate(184,233)"/>
<path d="M0 0 C1.32 0.33 2.64 0.66 4 1 C4 2.65 4 4.3 4 6 C2.68 6.33 1.36 6.66 0 7 C0 4.69 0 2.38 0 0 Z " fill="#E1CBA8" transform="translate(144,230)"/>
<path d="M0 0 C0.66 0 1.32 0 2 0 C2 2.31 2 4.62 2 7 C2.99 7 3.98 7 5 7 C5 7.66 5 8.32 5 9 C3.35 9 1.7 9 0 9 C0 6.03 0 3.06 0 0 Z " fill="#351C10" transform="translate(176,250)"/>
<path d="M0 0 C1.4540625 0.0309375 1.4540625 0.0309375 2.9375 0.0625 C2.9375 1.0525 2.9375 2.0425 2.9375 3.0625 C1.2875 2.7325 -0.3625 2.4025 -2.0625 2.0625 C-1.7325 3.3825 -1.4025 4.7025 -1.0625 6.0625 C-2.0525 6.0625 -3.0425 6.0625 -4.0625 6.0625 C-4.105221 4.39638095 -4.10313832 2.72867115 -4.0625 1.0625 C-3.0625 0.0625 -3.0625 0.0625 0 0 Z " fill="#462E20" transform="translate(146.0625,205.9375)"/>
<path d="M0 0 C-2.1413437 2.46254526 -3.69870394 3.69050349 -7 4 C-7.99 3.34 -8.98 2.68 -10 2 C-7.20652751 -0.79347249 -3.65536205 -1.82768103 0 0 Z " fill="#F3D9B3" transform="translate(173,260)"/>
<path d="M0 0 C3.625 0.375 3.625 0.375 7 1 C6.01 1.66 5.02 2.32 4 3 C3.01 2.67 2.02 2.34 1 2 C1 3.98 1 5.96 1 8 C0.67 8 0.34 8 0 8 C0 6.35 0 4.7 0 3 C-0.66 2.67 -1.32 2.34 -2 2 C-1.34 1.34 -0.68 0.68 0 0 Z " fill="#563F31" transform="translate(164,227)"/>
<path d="M0 0 C0.33 0 0.66 0 1 0 C1 1.65 1 3.3 1 5 C1.66 5 2.32 5 3 5 C3.33 6.32 3.66 7.64 4 9 C-0.75 8.25 -0.75 8.25 -3 6 C-2.01 6 -1.02 6 0 6 C0 4.02 0 2.04 0 0 Z " fill="#523D2F" transform="translate(218,209)"/>
<path d="M0 0 C2.97 0.33 5.94 0.66 9 1 C5.5647952 3.29013653 4.014669 3.17842973 0 3 C0 2.01 0 1.02 0 0 Z " fill="#412113" transform="translate(205,294)"/>
<path d="M0 0 C2.60334924 2.71182212 2.99456691 3.89133813 3.1875 7.75 C3.0946875 9.35875 3.0946875 9.35875 3 11 C2.01 10.34 1.02 9.68 0 9 C-0.29296875 6.8359375 -0.29296875 6.8359375 -0.1875 4.375 C-0.16042969 3.55773437 -0.13335937 2.74046875 -0.10546875 1.8984375 C-0.05326172 0.95871094 -0.05326172 0.95871094 0 0 Z " fill="#C8B496" transform="translate(192,248)"/>
<path d="M0 0 C2.125 0.375 2.125 0.375 4 1 C2.515 2.485 2.515 2.485 1 4 C1.99 4.33 2.98 4.66 4 5 C2.68 5 1.36 5 0 5 C-0.66 6.32 -1.32 7.64 -2 9 C-2.125 5.625 -2.125 5.625 -2 2 C-1.34 1.34 -0.68 0.68 0 0 Z " fill="#4B3326" transform="translate(142,248)"/>
<path d="M0 0 C1.65 0 3.3 0 5 0 C5.33 0.66 5.66 1.32 6 2 C5.67 2.99 5.34 3.98 5 5 C3.68 5 2.36 5 1 5 C0.67 3.35 0.34 1.7 0 0 Z " fill="#8D7761" transform="translate(184,227)"/>
<path d="M0 0 C2 2 2 2 2.265625 3.875 C2.26046875 4.57625 2.2553125 5.2775 2.25 6 C2.25515625 6.70125 2.2603125 7.4025 2.265625 8.125 C2 10 2 10 0 12 C-1.03159626 8.90521121 -0.97482862 7.47368607 -0.5625 4.3125 C-0.46066406 3.50425781 -0.35882813 2.69601563 -0.25390625 1.86328125 C-0.17011719 1.24839844 -0.08632812 0.63351563 0 0 Z " fill="#E1CAA8" transform="translate(169,206)"/>
<path d="M0 0 C1.98 0 3.96 0 6 0 C6.33 0.66 6.66 1.32 7 2 C5.35 1.67 3.7 1.34 2 1 C2 1.66 2 2.32 2 3 C2.66 3 3.32 3 4 3 C4 3.66 4 4.32 4 5 C2.68 5 1.36 5 0 5 C0 3.35 0 1.7 0 0 Z " fill="#D8C2A2" transform="translate(133,211)"/>
<path d="M0 0 C1.65 0.33 3.3 0.66 5 1 C5.33 2.32 5.66 3.64 6 5 C3.36 4.34 0.72 3.68 -2 3 C-1.34 2.67 -0.68 2.34 0 2 C0 1.34 0 0.68 0 0 Z " fill="#4F3021" transform="translate(241,176)"/>
<path d="M0 0 C0.99 0 1.98 0 3 0 C3 2.31 3 4.62 3 7 C2.01 6.67 1.02 6.34 0 6 C0 4.02 0 2.04 0 0 Z " fill="#D7C0A0" transform="translate(159,271)"/>
<path d="M0 0 C0.33 0 0.66 0 1 0 C1.66 2.97 2.32 5.94 3 9 C1.68 8.67 0.36 8.34 -1 8 C-1.04241723 5.66705225 -1.04092937 3.33297433 -1 1 C-0.67 0.67 -0.34 0.34 0 0 Z " fill="#351B0F" transform="translate(204,270)"/>
<path d="M0 0 C0.33 1.32 0.66 2.64 1 4 C-1.64 4.99 -4.28 5.98 -7 7 C-6.34 5.68 -5.68 4.36 -5 3 C-3.35 3 -1.7 3 0 3 C0 2.01 0 1.02 0 0 Z " fill="#4B3525" transform="translate(202,245)"/>
<path d="M0 0 C0.9075 0.226875 1.815 0.45375 2.75 0.6875 C0.75 2.6875 0.75 2.6875 -1.1953125 2.8828125 C-3.21354167 2.81770833 -5.23177083 2.75260417 -7.25 2.6875 C-4.61280971 0.1517401 -3.74095095 -0.35970682 0 0 Z " fill="#482717" transform="translate(153.25,173.3125)"/>
<path d="M0 0 C0.99 0 1.98 0 3 0 C5.1385485 2.1385485 5.42655063 3.13275314 6 6 C5.01 6.495 5.01 6.495 4 7 C3.67 5.68 3.34 4.36 3 3 C2.01 3 1.02 3 0 3 C0 2.01 0 1.02 0 0 Z " fill="#9A836A" transform="translate(180,202)"/>
<path d="M0 0 C0.66 0 1.32 0 2 0 C2.66 2.31 3.32 4.62 4 7 C3.01 7.33 2.02 7.66 1 8 C0 7 0 7 -0.0625 3.4375 C-0.041875 2.303125 -0.02125 1.16875 0 0 Z " fill="#3B2215" transform="translate(162,230)"/>
<path d="M0 0 C0.33 0 0.66 0 1 0 C1.103125 1.11375 1.20625 2.2275 1.3125 3.375 C1.539375 4.57125 1.76625 5.7675 2 7 C2.99 7.66 3.98 8.32 5 9 C3.35 9.33 1.7 9.66 0 10 C0 6.7 0 3.4 0 0 Z " fill="#3F271A" transform="translate(187,208)"/>
<path d="M0 0 C-0.99 0.495 -0.99 0.495 -2 1 C-2 1.66 -2 2.32 -2 3 C-2.99 3.33 -3.98 3.66 -5 4 C-5 3.34 -5 2.68 -5 2 C-5.99 1.67 -6.98 1.34 -8 1 C-3.375 -1.125 -3.375 -1.125 0 0 Z " fill="#4C2918" transform="translate(118,177)"/>
<path d="M0 0 C2.64 0.33 5.28 0.66 8 1 C7.67 1.66 7.34 2.32 7 3 C4.69 3 2.38 3 0 3 C0 2.01 0 1.02 0 0 Z " fill="#3F271A" transform="translate(156,256)"/>
<path d="M0 0 C0.33 0.99 0.66 1.98 1 3 C0 4 0 4 -3.5625 4.0625 C-4.696875 4.041875 -5.83125 4.02125 -7 4 C-7 3.01 -7 2.02 -7 1 C-5.02 1.66 -3.04 2.32 -1 3 C-0.67 2.01 -0.34 1.02 0 0 Z " fill="#3B2317" transform="translate(172,255)"/>
<path d="M0 0 C2 2 2 2 2.125 5.625 C2.08375 6.73875 2.0425 7.8525 2 9 C1.34 8.67 0.68 8.34 0 8 C-0.6875 4.5 -0.6875 4.5 -1 1 C-0.67 0.67 -0.34 0.34 0 0 Z " fill="#F4DCB5" transform="translate(151,227)"/>
<path d="M0 0 C1.32 0 2.64 0 4 0 C3.34 3.3 2.68 6.6 2 10 C1.67 10 1.34 10 1 10 C0.67 6.7 0.34 3.4 0 0 Z " fill="#533E2F" transform="translate(203,227)"/>
<path d="M0 0 C2.0625 0.4375 2.0625 0.4375 4 1 C4 1.66 4 2.32 4 3 C3.01 3 2.02 3 1 3 C0.67 3.66 0.34 4.32 0 5 C-0.66 5 -1.32 5 -2 5 C-1.125 1.125 -1.125 1.125 0 0 Z " fill="#3E281A" transform="translate(178,222)"/>
<path d="M0 0 C-0.33 0.66 -0.66 1.32 -1 2 C-3.31 2 -5.62 2 -8 2 C-8.33 1.34 -8.66 0.68 -9 0 C-5.93109813 -1.53445094 -3.29905734 -0.54984289 0 0 Z " fill="#482818" transform="translate(168,177)"/>
</svg>
